<svg width="1200" height="627" viewBox="0 0 1200 627" fill="none" xmlns="http://www.w3.org/2000/svg">
<rect width="1200" height="627" fill="#F9EBE0"/>
<g clip-path="url(#clip0_7_6)">
<rect x="70" y="106" width="1059" height="415" fill="#CB98AA"/>
<path d="M390.656 196.219C390.656 201.365 389.667 205.667 387.688 209.125C385.729 212.562 382.885 215.156 379.156 216.906C375.427 218.635 370.938 219.5 365.688 219.5H352.75V173.812H367.094C371.885 173.812 376.042 174.667 379.562 176.375C383.083 178.062 385.812 180.573 387.75 183.906C389.688 187.219 390.656 191.323 390.656 196.219ZM380.594 196.469C380.594 193.094 380.094 190.323 379.094 188.156C378.115 185.969 376.656 184.354 374.719 183.312C372.802 182.271 370.427 181.75 367.594 181.75H362.438V211.5H366.594C371.323 211.5 374.833 210.24 377.125 207.719C379.438 205.198 380.594 201.448 380.594 196.469ZM400.125 219.5V173.812H409.812V219.5H400.125ZM447.625 219.5H421.312V173.812H447.625V181.75H431V191.781H446.469V199.719H431V211.5H447.625V219.5ZM474.531 193.844H492.656V217.531C490.26 218.323 487.771 218.958 485.188 219.438C482.604 219.896 479.677 220.125 476.406 220.125C471.865 220.125 468.01 219.229 464.844 217.438C461.677 215.646 459.271 213 457.625 209.5C455.979 206 455.156 201.698 455.156 196.594C455.156 191.802 456.073 187.656 457.906 184.156C459.76 180.656 462.458 177.948 466 176.031C469.562 174.115 473.906 173.156 479.031 173.156C481.448 173.156 483.833 173.417 486.188 173.938C488.542 174.458 490.677 175.135 492.594 175.969L489.375 183.719C487.979 183.01 486.385 182.417 484.594 181.938C482.802 181.458 480.927 181.219 478.969 181.219C476.156 181.219 473.708 181.865 471.625 183.156C469.562 184.448 467.958 186.26 466.812 188.594C465.688 190.906 465.125 193.635 465.125 196.781C465.125 199.76 465.531 202.406 466.344 204.719C467.156 207.01 468.438 208.812 470.188 210.125C471.938 211.417 474.219 212.062 477.031 212.062C478.406 212.062 479.562 212 480.5 211.875C481.458 211.729 482.354 211.583 483.188 211.438V201.906H474.531V193.844ZM545.031 196.594C545.031 200.115 544.594 203.323 543.719 206.219C542.844 209.094 541.51 211.573 539.719 213.656C537.948 215.74 535.698 217.344 532.969 218.469C530.24 219.573 527.01 220.125 523.281 220.125C519.552 220.125 516.323 219.573 513.594 218.469C510.865 217.344 508.604 215.74 506.812 213.656C505.042 211.573 503.719 209.083 502.844 206.188C501.969 203.292 501.531 200.073 501.531 196.531C501.531 191.802 502.302 187.688 503.844 184.188C505.406 180.667 507.802 177.938 511.031 176C514.26 174.062 518.365 173.094 523.344 173.094C528.302 173.094 532.375 174.062 535.562 176C538.771 177.938 541.146 180.667 542.688 184.188C544.25 187.708 545.031 191.844 545.031 196.594ZM511.688 196.594C511.688 199.781 512.083 202.531 512.875 204.844C513.688 207.135 514.948 208.906 516.656 210.156C518.365 211.385 520.573 212 523.281 212C526.031 212 528.26 211.385 529.969 210.156C531.677 208.906 532.917 207.135 533.688 204.844C534.479 202.531 534.875 199.781 534.875 196.594C534.875 191.802 533.979 188.031 532.188 185.281C530.396 182.531 527.448 181.156 523.344 181.156C520.615 181.156 518.385 181.781 516.656 183.031C514.948 184.26 513.688 186.031 512.875 188.344C512.083 190.635 511.688 193.385 511.688 196.594ZM584.438 173.812C588.583 173.812 592 174.312 594.688 175.312C597.396 176.312 599.406 177.823 600.719 179.844C602.031 181.865 602.688 184.417 602.688 187.5C602.688 189.583 602.292 191.406 601.5 192.969C600.708 194.531 599.667 195.854 598.375 196.938C597.083 198.021 595.688 198.906 594.188 199.594L607.625 219.5H596.875L585.969 201.969H580.812V219.5H571.125V173.812H584.438ZM583.75 181.75H580.812V194.094H583.938C587.146 194.094 589.438 193.562 590.812 192.5C592.208 191.417 592.906 189.833 592.906 187.75C592.906 185.583 592.156 184.042 590.656 183.125C589.177 182.208 586.875 181.75 583.75 181.75ZM639.688 219.5H613.375V173.812H639.688V181.75H623.062V191.781H638.531V199.719H623.062V211.5H639.688V219.5ZM679.031 219.5H645.031V213.219L666.938 181.812H645.625V173.812H678.438V180.062L656.562 211.5H679.031V219.5ZM712.625 219.5H686.312V173.812H712.625V181.75H696V191.781H711.469V199.719H696V211.5H712.625V219.5ZM762.719 219.5H750.406L730.531 184.938H730.25C730.333 186.375 730.406 187.823 730.469 189.281C730.531 190.74 730.594 192.198 730.656 193.656C730.719 195.094 730.781 196.542 730.844 198V219.5H722.188V173.812H734.406L754.25 208.031H754.469C754.427 206.615 754.375 205.208 754.312 203.812C754.25 202.417 754.188 201.021 754.125 199.625C754.083 198.229 754.042 196.833 754 195.438V173.812H762.719V219.5ZM812.156 196.219C812.156 201.365 811.167 205.667 809.188 209.125C807.229 212.562 804.385 215.156 800.656 216.906C796.927 218.635 792.438 219.5 787.188 219.5H774.25V173.812H788.594C793.385 173.812 797.542 174.667 801.062 176.375C804.583 178.062 807.312 180.573 809.25 183.906C811.188 187.219 812.156 191.323 812.156 196.219ZM802.094 196.469C802.094 193.094 801.594 190.323 800.594 188.156C799.615 185.969 798.156 184.354 796.219 183.312C794.302 182.271 791.927 181.75 789.094 181.75H783.938V211.5H788.094C792.823 211.5 796.333 210.24 798.625 207.719C800.938 205.198 802.094 201.448 802.094 196.469ZM847.938 219.5H821.625V173.812H847.938V181.75H831.312V191.781H846.781V199.719H831.312V211.5H847.938V219.5Z" fill="#0E181E"/>
<path d="M404.039 287.859H397.641V310.5H393.75V287.859H389.203V285.984L393.75 284.695V282.984C393.75 280.828 394.07 279.078 394.711 277.734C395.352 276.375 396.281 275.375 397.5 274.734C398.719 274.094 400.203 273.773 401.953 273.773C402.938 273.773 403.836 273.859 404.648 274.031C405.477 274.203 406.203 274.398 406.828 274.617L405.82 277.688C405.289 277.516 404.688 277.359 404.016 277.219C403.359 277.062 402.688 276.984 402 276.984C400.516 276.984 399.414 277.469 398.695 278.438C397.992 279.391 397.641 280.891 397.641 282.938V284.812H404.039V287.859ZM429.984 284.812V310.5H426.797L426.234 306.891H426.023C425.492 307.781 424.805 308.531 423.961 309.141C423.117 309.75 422.164 310.203 421.102 310.5C420.055 310.812 418.938 310.969 417.75 310.969C415.719 310.969 414.016 310.641 412.641 309.984C411.266 309.328 410.227 308.312 409.523 306.938C408.836 305.562 408.492 303.797 408.492 301.641V284.812H412.43V301.359C412.43 303.5 412.914 305.102 413.883 306.164C414.852 307.211 416.328 307.734 418.312 307.734C420.219 307.734 421.734 307.375 422.859 306.656C424 305.938 424.82 304.883 425.32 303.492C425.82 302.086 426.07 300.367 426.07 298.336V284.812H429.984ZM442.125 310.5H438.211V274.031H442.125V310.5ZM454.266 310.5H450.352V274.031H454.266V310.5ZM479.109 303.469C479.109 305.109 478.695 306.492 477.867 307.617C477.055 308.727 475.883 309.562 474.352 310.125C472.836 310.688 471.023 310.969 468.914 310.969C467.117 310.969 465.562 310.828 464.25 310.547C462.938 310.266 461.789 309.867 460.805 309.352V305.766C461.852 306.281 463.102 306.75 464.555 307.172C466.008 307.594 467.492 307.805 469.008 307.805C471.227 307.805 472.836 307.445 473.836 306.727C474.836 306.008 475.336 305.031 475.336 303.797C475.336 303.094 475.133 302.477 474.727 301.945C474.336 301.398 473.672 300.875 472.734 300.375C471.797 299.859 470.5 299.297 468.844 298.688C467.203 298.062 465.781 297.445 464.578 296.836C463.391 296.211 462.469 295.453 461.812 294.562C461.172 293.672 460.852 292.516 460.852 291.094C460.852 288.922 461.727 287.258 463.477 286.102C465.242 284.93 467.555 284.344 470.414 284.344C471.961 284.344 473.406 284.5 474.75 284.812C476.109 285.109 477.375 285.516 478.547 286.031L477.234 289.148C476.172 288.695 475.039 288.312 473.836 288C472.633 287.688 471.406 287.531 470.156 287.531C468.359 287.531 466.977 287.828 466.008 288.422C465.055 289.016 464.578 289.828 464.578 290.859C464.578 291.656 464.797 292.312 465.234 292.828C465.688 293.344 466.406 293.828 467.391 294.281C468.375 294.734 469.672 295.266 471.281 295.875C472.891 296.469 474.281 297.086 475.453 297.727C476.625 298.352 477.523 299.117 478.148 300.023C478.789 300.914 479.109 302.062 479.109 303.469ZM493.664 307.781C494.305 307.781 494.961 307.727 495.633 307.617C496.305 307.508 496.852 307.375 497.273 307.219V310.242C496.82 310.445 496.188 310.617 495.375 310.758C494.578 310.898 493.797 310.969 493.031 310.969C491.672 310.969 490.438 310.734 489.328 310.266C488.219 309.781 487.328 308.969 486.656 307.828C486 306.688 485.672 305.109 485.672 303.094V287.859H482.016V285.961L485.695 284.438L487.242 278.859H489.586V284.812H497.109V287.859H489.586V302.977C489.586 304.586 489.953 305.789 490.688 306.586C491.438 307.383 492.43 307.781 493.664 307.781ZM512.086 284.391C515.148 284.391 517.422 285.078 518.906 286.453C520.391 287.828 521.133 290.023 521.133 293.039V310.5H518.297L517.547 306.703H517.359C516.641 307.641 515.891 308.43 515.109 309.07C514.328 309.695 513.422 310.172 512.391 310.5C511.375 310.812 510.125 310.969 508.641 310.969C507.078 310.969 505.688 310.695 504.469 310.148C503.266 309.602 502.312 308.773 501.609 307.664C500.922 306.555 500.578 305.148 500.578 303.445C500.578 300.883 501.594 298.914 503.625 297.539C505.656 296.164 508.75 295.414 512.906 295.289L517.336 295.102V293.531C517.336 291.312 516.859 289.758 515.906 288.867C514.953 287.977 513.609 287.531 511.875 287.531C510.531 287.531 509.25 287.727 508.031 288.117C506.812 288.508 505.656 288.969 504.562 289.5L503.367 286.547C504.523 285.953 505.852 285.445 507.352 285.023C508.852 284.602 510.43 284.391 512.086 284.391ZM517.289 297.844L513.375 298.008C510.172 298.133 507.914 298.656 506.602 299.578C505.289 300.5 504.633 301.805 504.633 303.492C504.633 304.961 505.078 306.047 505.969 306.75C506.859 307.453 508.039 307.805 509.508 307.805C511.789 307.805 513.656 307.172 515.109 305.906C516.562 304.641 517.289 302.742 517.289 300.211V297.844ZM539.438 310.969C537.125 310.969 535.086 310.492 533.32 309.539C531.555 308.586 530.18 307.133 529.195 305.18C528.211 303.227 527.719 300.766 527.719 297.797C527.719 294.688 528.234 292.148 529.266 290.18C530.312 288.195 531.75 286.727 533.578 285.773C535.406 284.82 537.484 284.344 539.812 284.344C541.094 284.344 542.328 284.477 543.516 284.742C544.719 284.992 545.703 285.312 546.469 285.703L545.297 288.961C544.516 288.648 543.609 288.367 542.578 288.117C541.562 287.867 540.609 287.742 539.719 287.742C537.938 287.742 536.453 288.125 535.266 288.891C534.094 289.656 533.211 290.781 532.617 292.266C532.039 293.75 531.75 295.578 531.75 297.75C531.75 299.828 532.031 301.602 532.594 303.07C533.172 304.539 534.023 305.664 535.148 306.445C536.289 307.211 537.711 307.594 539.414 307.594C540.773 307.594 542 307.453 543.094 307.172C544.188 306.875 545.18 306.531 546.07 306.141V309.609C545.211 310.047 544.25 310.383 543.188 310.617C542.141 310.852 540.891 310.969 539.438 310.969ZM556.031 274.031V292.969C556.031 293.594 556.008 294.359 555.961 295.266C555.914 296.156 555.875 296.945 555.844 297.633H556.008C556.336 297.227 556.812 296.625 557.438 295.828C558.078 295.031 558.617 294.391 559.055 293.906L567.586 284.812H572.156L561.82 295.781L572.906 310.5H568.219L559.148 298.336L556.031 301.195V310.5H552.164V274.031H556.031ZM598.992 310.969C595.742 310.969 593.164 309.859 591.258 307.641C589.367 305.422 588.422 302.125 588.422 297.75C588.422 293.328 589.391 289.992 591.328 287.742C593.266 285.477 595.844 284.344 599.062 284.344C600.422 284.344 601.609 284.523 602.625 284.883C603.641 285.242 604.516 285.727 605.25 286.336C605.984 286.93 606.602 287.609 607.102 288.375H607.383C607.32 287.891 607.258 287.227 607.195 286.383C607.133 285.539 607.102 284.852 607.102 284.32V274.031H610.992V310.5H607.852L607.266 306.844H607.102C606.617 307.609 606 308.305 605.25 308.93C604.516 309.555 603.633 310.055 602.602 310.43C601.586 310.789 600.383 310.969 598.992 310.969ZM599.602 307.734C602.352 307.734 604.297 306.953 605.438 305.391C606.578 303.828 607.148 301.508 607.148 298.43V297.727C607.148 294.461 606.602 291.953 605.508 290.203C604.43 288.453 602.461 287.578 599.602 287.578C597.211 287.578 595.422 288.5 594.234 290.344C593.047 292.172 592.453 294.672 592.453 297.844C592.453 301 593.039 303.438 594.211 305.156C595.398 306.875 597.195 307.734 599.602 307.734ZM629.133 284.344C631.32 284.344 633.195 284.828 634.758 285.797C636.32 286.766 637.516 288.125 638.344 289.875C639.172 291.609 639.586 293.641 639.586 295.969V298.383H621.844C621.891 301.398 622.641 303.695 624.094 305.273C625.547 306.852 627.594 307.641 630.234 307.641C631.859 307.641 633.297 307.492 634.547 307.195C635.797 306.898 637.094 306.461 638.438 305.883V309.305C637.141 309.883 635.852 310.305 634.57 310.57C633.305 310.836 631.805 310.969 630.07 310.969C627.602 310.969 625.445 310.469 623.602 309.469C621.773 308.453 620.352 306.969 619.336 305.016C618.32 303.062 617.812 300.672 617.812 297.844C617.812 295.078 618.273 292.688 619.195 290.672C620.133 288.641 621.445 287.078 623.133 285.984C624.836 284.891 626.836 284.344 629.133 284.344ZM629.086 287.531C627.008 287.531 625.352 288.211 624.117 289.57C622.883 290.93 622.148 292.828 621.914 295.266H635.508C635.492 293.734 635.25 292.391 634.781 291.234C634.328 290.062 633.633 289.156 632.695 288.516C631.758 287.859 630.555 287.531 629.086 287.531ZM651.844 310.5L642.094 284.812H646.266L651.914 300.352C652.305 301.414 652.703 302.586 653.109 303.867C653.516 305.148 653.797 306.18 653.953 306.961H654.117C654.305 306.18 654.617 305.148 655.055 303.867C655.492 302.57 655.891 301.398 656.25 300.352L661.898 284.812H666.07L656.297 310.5H651.844ZM680.086 284.344C682.273 284.344 684.148 284.828 685.711 285.797C687.273 286.766 688.469 288.125 689.297 289.875C690.125 291.609 690.539 293.641 690.539 295.969V298.383H672.797C672.844 301.398 673.594 303.695 675.047 305.273C676.5 306.852 678.547 307.641 681.188 307.641C682.812 307.641 684.25 307.492 685.5 307.195C686.75 306.898 688.047 306.461 689.391 305.883V309.305C688.094 309.883 686.805 310.305 685.523 310.57C684.258 310.836 682.758 310.969 681.023 310.969C678.555 310.969 676.398 310.469 674.555 309.469C672.727 308.453 671.305 306.969 670.289 305.016C669.273 303.062 668.766 300.672 668.766 297.844C668.766 295.078 669.227 292.688 670.148 290.672C671.086 288.641 672.398 287.078 674.086 285.984C675.789 284.891 677.789 284.344 680.086 284.344ZM680.039 287.531C677.961 287.531 676.305 288.211 675.07 289.57C673.836 290.93 673.102 292.828 672.867 295.266H686.461C686.445 293.734 686.203 292.391 685.734 291.234C685.281 290.062 684.586 289.156 683.648 288.516C682.711 287.859 681.508 287.531 680.039 287.531ZM701.062 310.5H697.148V274.031H701.062V310.5ZM731.438 297.609C731.438 299.719 731.164 301.602 730.617 303.258C730.07 304.914 729.281 306.312 728.25 307.453C727.219 308.594 725.969 309.469 724.5 310.078C723.047 310.672 721.398 310.969 719.555 310.969C717.836 310.969 716.258 310.672 714.82 310.078C713.398 309.469 712.164 308.594 711.117 307.453C710.086 306.312 709.281 304.914 708.703 303.258C708.141 301.602 707.859 299.719 707.859 297.609C707.859 294.797 708.336 292.406 709.289 290.438C710.242 288.453 711.602 286.945 713.367 285.914C715.148 284.867 717.266 284.344 719.719 284.344C722.062 284.344 724.109 284.867 725.859 285.914C727.625 286.961 728.992 288.477 729.961 290.461C730.945 292.43 731.438 294.812 731.438 297.609ZM711.891 297.609C711.891 299.672 712.164 301.461 712.711 302.977C713.258 304.492 714.102 305.664 715.242 306.492C716.383 307.32 717.852 307.734 719.648 307.734C721.43 307.734 722.891 307.32 724.031 306.492C725.188 305.664 726.039 304.492 726.586 302.977C727.133 301.461 727.406 299.672 727.406 297.609C727.406 295.562 727.133 293.797 726.586 292.312C726.039 290.812 725.195 289.656 724.055 288.844C722.914 288.031 721.438 287.625 719.625 287.625C716.953 287.625 714.992 288.508 713.742 290.273C712.508 292.039 711.891 294.484 711.891 297.609ZM750.234 284.344C753.438 284.344 755.992 285.445 757.898 287.648C759.805 289.852 760.758 293.164 760.758 297.586C760.758 300.508 760.32 302.961 759.445 304.945C758.57 306.93 757.336 308.43 755.742 309.445C754.164 310.461 752.297 310.969 750.141 310.969C748.781 310.969 747.586 310.789 746.555 310.43C745.523 310.07 744.641 309.586 743.906 308.977C743.172 308.367 742.562 307.703 742.078 306.984H741.797C741.844 307.594 741.898 308.328 741.961 309.188C742.039 310.047 742.078 310.797 742.078 311.438V321.984H738.164V284.812H741.375L741.891 288.609H742.078C742.578 287.828 743.188 287.117 743.906 286.477C744.625 285.82 745.5 285.305 746.531 284.93C747.578 284.539 748.812 284.344 750.234 284.344ZM749.555 287.625C747.773 287.625 746.336 287.969 745.242 288.656C744.164 289.344 743.375 290.375 742.875 291.75C742.375 293.109 742.109 294.82 742.078 296.883V297.633C742.078 299.805 742.312 301.641 742.781 303.141C743.266 304.641 744.055 305.781 745.148 306.562C746.258 307.344 747.742 307.734 749.602 307.734C751.195 307.734 752.523 307.305 753.586 306.445C754.648 305.586 755.438 304.391 755.953 302.859C756.484 301.312 756.75 299.539 756.75 297.539C756.75 294.508 756.156 292.102 754.969 290.32C753.797 288.523 751.992 287.625 749.555 287.625ZM777.445 284.344C779.633 284.344 781.508 284.828 783.07 285.797C784.633 286.766 785.828 288.125 786.656 289.875C787.484 291.609 787.898 293.641 787.898 295.969V298.383H770.156C770.203 301.398 770.953 303.695 772.406 305.273C773.859 306.852 775.906 307.641 778.547 307.641C780.172 307.641 781.609 307.492 782.859 307.195C784.109 306.898 785.406 306.461 786.75 305.883V309.305C785.453 309.883 784.164 310.305 782.883 310.57C781.617 310.836 780.117 310.969 778.383 310.969C775.914 310.969 773.758 310.469 771.914 309.469C770.086 308.453 768.664 306.969 767.648 305.016C766.633 303.062 766.125 300.672 766.125 297.844C766.125 295.078 766.586 292.688 767.508 290.672C768.445 288.641 769.758 287.078 771.445 285.984C773.148 284.891 775.148 284.344 777.445 284.344ZM777.398 287.531C775.32 287.531 773.664 288.211 772.43 289.57C771.195 290.93 770.461 292.828 770.227 295.266H783.82C783.805 293.734 783.562 292.391 783.094 291.234C782.641 290.062 781.945 289.156 781.008 288.516C780.07 287.859 778.867 287.531 777.398 287.531ZM806.18 284.344C806.695 284.344 807.234 284.375 807.797 284.438C808.359 284.484 808.859 284.555 809.297 284.648L808.805 288.258C808.383 288.148 807.914 288.062 807.398 288C806.883 287.938 806.398 287.906 805.945 287.906C804.914 287.906 803.938 288.117 803.016 288.539C802.109 288.945 801.312 289.539 800.625 290.32C799.938 291.086 799.398 292.016 799.008 293.109C798.617 294.188 798.422 295.391 798.422 296.719V310.5H794.508V284.812H797.742L798.164 289.547H798.328C798.859 288.594 799.5 287.727 800.25 286.945C801 286.148 801.867 285.516 802.852 285.047C803.852 284.578 804.961 284.344 806.18 284.344Z" fill="#312F2C"/>
<rect width="1613" height="130" transform="translate(-207 345.5)" fill="#CB98AA"/>
<rect width="331" height="117" transform="translate(85.5 352)" fill="#CB98AA"/>
<path d="M274.333 362C276.101 362 277.797 362.702 279.047 363.953C280.298 365.203 281 366.899 281 368.667V415.333C281 417.101 280.298 418.797 279.047 420.047C277.797 421.298 276.101 422 274.333 422H227.667C225.899 422 224.203 421.298 222.953 420.047C221.702 418.797 221 417.101 221 415.333V368.667C221 366.899 221.702 365.203 222.953 363.953C224.203 362.702 225.899 362 227.667 362H274.333ZM272.667 413.667V396C272.667 393.118 271.522 390.354 269.484 388.316C267.446 386.278 264.682 385.133 261.8 385.133C258.967 385.133 255.667 386.867 254.067 389.467V385.767H244.767V413.667H254.067V397.233C254.067 394.667 256.133 392.567 258.7 392.567C259.938 392.567 261.125 393.058 262 393.934C262.875 394.809 263.367 395.996 263.367 397.233V413.667H272.667ZM233.933 380.533C235.419 380.533 236.843 379.943 237.893 378.893C238.943 377.843 239.533 376.419 239.533 374.933C239.533 371.833 237.033 369.3 233.933 369.3C232.439 369.3 231.006 369.894 229.95 370.95C228.894 372.006 228.3 373.439 228.3 374.933C228.3 378.033 230.833 380.533 233.933 380.533ZM238.567 413.667V385.767H229.333V413.667H238.567Z" fill="#0E181E"/>
<path d="M134.23 463H132.6V447.805H134.23V463ZM139.279 452.297V463H137.658V452.297H139.279ZM138.488 448.293C138.755 448.293 138.983 448.381 139.172 448.557C139.367 448.726 139.465 448.993 139.465 449.357C139.465 449.715 139.367 449.982 139.172 450.158C138.983 450.334 138.755 450.422 138.488 450.422C138.208 450.422 137.974 450.334 137.785 450.158C137.603 449.982 137.512 449.715 137.512 449.357C137.512 448.993 137.603 448.726 137.785 448.557C137.974 448.381 138.208 448.293 138.488 448.293ZM147.785 452.102C149.055 452.102 150.015 452.414 150.666 453.039C151.317 453.658 151.643 454.654 151.643 456.027V463H150.041V456.135C150.041 455.243 149.836 454.576 149.426 454.133C149.022 453.69 148.4 453.469 147.561 453.469C146.376 453.469 145.542 453.804 145.061 454.475C144.579 455.145 144.338 456.118 144.338 457.395V463H142.717V452.297H144.025L144.27 453.84H144.357C144.585 453.462 144.875 453.146 145.227 452.893C145.578 452.632 145.972 452.437 146.408 452.307C146.844 452.17 147.303 452.102 147.785 452.102ZM156.594 447.805V455.695C156.594 455.956 156.584 456.275 156.564 456.652C156.545 457.023 156.529 457.352 156.516 457.639H156.584C156.721 457.469 156.919 457.219 157.18 456.887C157.447 456.555 157.671 456.288 157.854 456.086L161.408 452.297H163.312L159.006 456.867L163.625 463H161.672L157.893 457.932L156.594 459.123V463H154.982V447.805H156.594ZM169.611 452.102C170.523 452.102 171.304 452.303 171.955 452.707C172.606 453.111 173.104 453.677 173.449 454.406C173.794 455.129 173.967 455.975 173.967 456.945V457.951H166.574C166.594 459.208 166.906 460.165 167.512 460.822C168.117 461.48 168.97 461.809 170.07 461.809C170.747 461.809 171.346 461.747 171.867 461.623C172.388 461.499 172.928 461.317 173.488 461.076V462.502C172.948 462.743 172.411 462.919 171.877 463.029C171.35 463.14 170.725 463.195 170.002 463.195C168.973 463.195 168.075 462.987 167.307 462.57C166.545 462.147 165.952 461.529 165.529 460.715C165.106 459.901 164.895 458.905 164.895 457.727C164.895 456.574 165.087 455.578 165.471 454.738C165.861 453.892 166.408 453.241 167.111 452.785C167.821 452.329 168.654 452.102 169.611 452.102ZM169.592 453.43C168.726 453.43 168.036 453.713 167.521 454.279C167.007 454.846 166.701 455.637 166.604 456.652H172.268C172.261 456.014 172.16 455.454 171.965 454.973C171.776 454.484 171.486 454.107 171.096 453.84C170.705 453.566 170.204 453.43 169.592 453.43ZM180.529 463.195C179.175 463.195 178.101 462.733 177.307 461.809C176.519 460.884 176.125 459.51 176.125 457.688C176.125 455.845 176.529 454.455 177.336 453.518C178.143 452.574 179.217 452.102 180.559 452.102C181.125 452.102 181.62 452.176 182.043 452.326C182.466 452.476 182.831 452.678 183.137 452.932C183.443 453.179 183.7 453.462 183.908 453.781H184.025C183.999 453.579 183.973 453.303 183.947 452.951C183.921 452.6 183.908 452.313 183.908 452.092V447.805H185.529V463H184.221L183.977 461.477H183.908C183.706 461.796 183.449 462.085 183.137 462.346C182.831 462.606 182.463 462.814 182.033 462.971C181.61 463.12 181.109 463.195 180.529 463.195ZM180.783 461.848C181.929 461.848 182.74 461.522 183.215 460.871C183.69 460.22 183.928 459.253 183.928 457.971V457.678C183.928 456.317 183.7 455.272 183.244 454.543C182.795 453.814 181.975 453.449 180.783 453.449C179.787 453.449 179.042 453.833 178.547 454.602C178.052 455.363 177.805 456.405 177.805 457.727C177.805 459.042 178.049 460.057 178.537 460.773C179.032 461.49 179.781 461.848 180.783 461.848ZM190.588 452.297V463H188.967V452.297H190.588ZM189.797 448.293C190.064 448.293 190.292 448.381 190.48 448.557C190.676 448.726 190.773 448.993 190.773 449.357C190.773 449.715 190.676 449.982 190.48 450.158C190.292 450.334 190.064 450.422 189.797 450.422C189.517 450.422 189.283 450.334 189.094 450.158C188.911 449.982 188.82 449.715 188.82 449.357C188.82 448.993 188.911 448.726 189.094 448.557C189.283 448.381 189.517 448.293 189.797 448.293ZM199.094 452.102C200.363 452.102 201.324 452.414 201.975 453.039C202.626 453.658 202.951 454.654 202.951 456.027V463H201.35V456.135C201.35 455.243 201.145 454.576 200.734 454.133C200.331 453.69 199.709 453.469 198.869 453.469C197.684 453.469 196.851 453.804 196.369 454.475C195.887 455.145 195.646 456.118 195.646 457.395V463H194.025V452.297H195.334L195.578 453.84H195.666C195.894 453.462 196.184 453.146 196.535 452.893C196.887 452.632 197.281 452.437 197.717 452.307C198.153 452.17 198.612 452.102 199.094 452.102ZM206.047 461.984C206.047 461.529 206.158 461.206 206.379 461.018C206.6 460.822 206.87 460.725 207.189 460.725C207.521 460.725 207.801 460.822 208.029 461.018C208.257 461.206 208.371 461.529 208.371 461.984C208.371 462.434 208.257 462.762 208.029 462.971C207.801 463.173 207.521 463.273 207.189 463.273C206.87 463.273 206.6 463.173 206.379 462.971C206.158 462.762 206.047 462.434 206.047 461.984ZM215.832 463.195C214.868 463.195 214.019 462.997 213.283 462.6C212.548 462.202 211.975 461.597 211.564 460.783C211.154 459.969 210.949 458.944 210.949 457.707C210.949 456.411 211.164 455.354 211.594 454.533C212.03 453.706 212.629 453.094 213.391 452.697C214.152 452.3 215.018 452.102 215.988 452.102C216.522 452.102 217.036 452.157 217.531 452.268C218.033 452.372 218.443 452.505 218.762 452.668L218.273 454.025C217.948 453.895 217.57 453.778 217.141 453.674C216.717 453.57 216.32 453.518 215.949 453.518C215.207 453.518 214.589 453.677 214.094 453.996C213.605 454.315 213.238 454.784 212.99 455.402C212.749 456.021 212.629 456.783 212.629 457.688C212.629 458.553 212.746 459.292 212.98 459.904C213.221 460.516 213.576 460.985 214.045 461.311C214.52 461.63 215.113 461.789 215.822 461.789C216.389 461.789 216.9 461.73 217.355 461.613C217.811 461.49 218.225 461.346 218.596 461.184V462.629C218.238 462.811 217.837 462.951 217.395 463.049C216.958 463.146 216.438 463.195 215.832 463.195ZM230.363 457.629C230.363 458.508 230.249 459.292 230.021 459.982C229.794 460.673 229.465 461.255 229.035 461.73C228.605 462.206 228.085 462.57 227.473 462.824C226.867 463.072 226.18 463.195 225.412 463.195C224.696 463.195 224.038 463.072 223.439 462.824C222.847 462.57 222.333 462.206 221.896 461.73C221.467 461.255 221.132 460.673 220.891 459.982C220.656 459.292 220.539 458.508 220.539 457.629C220.539 456.457 220.738 455.461 221.135 454.641C221.532 453.814 222.098 453.186 222.834 452.756C223.576 452.32 224.458 452.102 225.48 452.102C226.457 452.102 227.31 452.32 228.039 452.756C228.775 453.192 229.344 453.824 229.748 454.65C230.158 455.471 230.363 456.464 230.363 457.629ZM222.219 457.629C222.219 458.488 222.333 459.234 222.561 459.865C222.788 460.497 223.14 460.985 223.615 461.33C224.09 461.675 224.702 461.848 225.451 461.848C226.193 461.848 226.802 461.675 227.277 461.33C227.759 460.985 228.114 460.497 228.342 459.865C228.57 459.234 228.684 458.488 228.684 457.629C228.684 456.776 228.57 456.04 228.342 455.422C228.114 454.797 227.762 454.315 227.287 453.977C226.812 453.638 226.197 453.469 225.441 453.469C224.328 453.469 223.511 453.837 222.99 454.572C222.476 455.308 222.219 456.327 222.219 457.629ZM244.787 452.102C245.965 452.102 246.854 452.411 247.453 453.029C248.052 453.641 248.352 454.628 248.352 455.988V463H246.75V456.066C246.75 455.201 246.561 454.553 246.184 454.123C245.812 453.687 245.259 453.469 244.523 453.469C243.488 453.469 242.736 453.768 242.268 454.367C241.799 454.966 241.564 455.848 241.564 457.014V463H239.953V456.066C239.953 455.487 239.868 455.005 239.699 454.621C239.536 454.237 239.289 453.951 238.957 453.762C238.632 453.566 238.218 453.469 237.717 453.469C237.007 453.469 236.438 453.615 236.008 453.908C235.578 454.201 235.266 454.637 235.07 455.217C234.882 455.79 234.787 456.496 234.787 457.336V463H233.166V452.297H234.475L234.719 453.811H234.807C235.021 453.439 235.292 453.127 235.617 452.873C235.943 452.619 236.307 452.427 236.711 452.297C237.115 452.167 237.544 452.102 238 452.102C238.814 452.102 239.494 452.255 240.041 452.561C240.594 452.86 240.995 453.319 241.242 453.938H241.33C241.682 453.319 242.163 452.86 242.775 452.561C243.387 452.255 244.058 452.102 244.787 452.102ZM257.092 448.723L251.779 463H250.178L255.5 448.723H257.092ZM260.646 452.297V463H259.025V452.297H260.646ZM259.855 448.293C260.122 448.293 260.35 448.381 260.539 448.557C260.734 448.726 260.832 448.993 260.832 449.357C260.832 449.715 260.734 449.982 260.539 450.158C260.35 450.334 260.122 450.422 259.855 450.422C259.576 450.422 259.341 450.334 259.152 450.158C258.97 449.982 258.879 449.715 258.879 449.357C258.879 448.993 258.97 448.726 259.152 448.557C259.341 448.381 259.576 448.293 259.855 448.293ZM269.152 452.102C270.422 452.102 271.382 452.414 272.033 453.039C272.684 453.658 273.01 454.654 273.01 456.027V463H271.408V456.135C271.408 455.243 271.203 454.576 270.793 454.133C270.389 453.69 269.768 453.469 268.928 453.469C267.743 453.469 266.91 453.804 266.428 454.475C265.946 455.145 265.705 456.118 265.705 457.395V463H264.084V452.297H265.393L265.637 453.84H265.725C265.952 453.462 266.242 453.146 266.594 452.893C266.945 452.632 267.339 452.437 267.775 452.307C268.212 452.17 268.671 452.102 269.152 452.102ZM281.76 448.723L276.447 463H274.846L280.168 448.723H281.76ZM287.502 463.195C286.148 463.195 285.074 462.733 284.279 461.809C283.492 460.884 283.098 459.51 283.098 457.688C283.098 455.845 283.501 454.455 284.309 453.518C285.116 452.574 286.19 452.102 287.531 452.102C288.098 452.102 288.592 452.176 289.016 452.326C289.439 452.476 289.803 452.678 290.109 452.932C290.415 453.179 290.673 453.462 290.881 453.781H290.998C290.972 453.579 290.946 453.303 290.92 452.951C290.894 452.6 290.881 452.313 290.881 452.092V447.805H292.502V463H291.193L290.949 461.477H290.881C290.679 461.796 290.422 462.085 290.109 462.346C289.803 462.606 289.436 462.814 289.006 462.971C288.583 463.12 288.081 463.195 287.502 463.195ZM287.756 461.848C288.902 461.848 289.712 461.522 290.188 460.871C290.663 460.22 290.9 459.253 290.9 457.971V457.678C290.9 456.317 290.673 455.272 290.217 454.543C289.768 453.814 288.947 453.449 287.756 453.449C286.76 453.449 286.014 453.833 285.52 454.602C285.025 455.363 284.777 456.405 284.777 457.727C284.777 459.042 285.021 460.057 285.51 460.773C286.005 461.49 286.753 461.848 287.756 461.848ZM297.561 452.297V463H295.939V452.297H297.561ZM296.77 448.293C297.036 448.293 297.264 448.381 297.453 448.557C297.648 448.726 297.746 448.993 297.746 449.357C297.746 449.715 297.648 449.982 297.453 450.158C297.264 450.334 297.036 450.422 296.77 450.422C296.49 450.422 296.255 450.334 296.066 450.158C295.884 449.982 295.793 449.715 295.793 449.357C295.793 448.993 295.884 448.726 296.066 448.557C296.255 448.381 296.49 448.293 296.77 448.293ZM305.119 452.102C306.031 452.102 306.812 452.303 307.463 452.707C308.114 453.111 308.612 453.677 308.957 454.406C309.302 455.129 309.475 455.975 309.475 456.945V457.951H302.082C302.102 459.208 302.414 460.165 303.02 460.822C303.625 461.48 304.478 461.809 305.578 461.809C306.255 461.809 306.854 461.747 307.375 461.623C307.896 461.499 308.436 461.317 308.996 461.076V462.502C308.456 462.743 307.919 462.919 307.385 463.029C306.857 463.14 306.232 463.195 305.51 463.195C304.481 463.195 303.583 462.987 302.814 462.57C302.053 462.147 301.46 461.529 301.037 460.715C300.614 459.901 300.402 458.905 300.402 457.727C300.402 456.574 300.594 455.578 300.979 454.738C301.369 453.892 301.916 453.241 302.619 452.785C303.329 452.329 304.162 452.102 305.119 452.102ZM305.1 453.43C304.234 453.43 303.544 453.713 303.029 454.279C302.515 454.846 302.209 455.637 302.111 456.652H307.775C307.769 456.014 307.668 455.454 307.473 454.973C307.284 454.484 306.994 454.107 306.604 453.84C306.213 453.566 305.712 453.43 305.1 453.43ZM315.217 467.805C313.811 467.805 312.727 467.541 311.965 467.014C311.203 466.493 310.822 465.76 310.822 464.816C310.822 464.146 311.034 463.573 311.457 463.098C311.887 462.622 312.479 462.307 313.234 462.15C312.954 462.02 312.714 461.825 312.512 461.564C312.316 461.304 312.219 461.005 312.219 460.666C312.219 460.275 312.326 459.934 312.541 459.641C312.762 459.341 313.098 459.055 313.547 458.781C312.987 458.553 312.531 458.169 312.18 457.629C311.835 457.082 311.662 456.447 311.662 455.725C311.662 454.956 311.822 454.302 312.141 453.762C312.46 453.215 312.922 452.798 313.527 452.512C314.133 452.225 314.865 452.082 315.725 452.082C315.913 452.082 316.102 452.092 316.291 452.111C316.486 452.124 316.672 452.147 316.848 452.18C317.023 452.206 317.176 452.238 317.307 452.277H320.979V453.322L319.006 453.566C319.201 453.82 319.364 454.126 319.494 454.484C319.624 454.842 319.689 455.24 319.689 455.676C319.689 456.743 319.328 457.593 318.605 458.225C317.883 458.85 316.89 459.162 315.627 459.162C315.327 459.162 315.021 459.136 314.709 459.084C314.39 459.26 314.146 459.455 313.977 459.67C313.814 459.885 313.732 460.132 313.732 460.412C313.732 460.62 313.794 460.786 313.918 460.91C314.048 461.034 314.234 461.125 314.475 461.184C314.715 461.236 315.005 461.262 315.344 461.262H317.229C318.394 461.262 319.286 461.506 319.904 461.994C320.529 462.482 320.842 463.195 320.842 464.133C320.842 465.318 320.36 466.226 319.396 466.857C318.433 467.489 317.04 467.805 315.217 467.805ZM315.266 466.535C316.151 466.535 316.883 466.444 317.463 466.262C318.049 466.086 318.485 465.829 318.771 465.49C319.064 465.158 319.211 464.761 319.211 464.299C319.211 463.869 319.113 463.544 318.918 463.322C318.723 463.107 318.436 462.964 318.059 462.893C317.681 462.814 317.219 462.775 316.672 462.775H314.816C314.335 462.775 313.915 462.85 313.557 463C313.199 463.15 312.922 463.371 312.727 463.664C312.538 463.957 312.443 464.322 312.443 464.758C312.443 465.337 312.688 465.777 313.176 466.076C313.664 466.382 314.361 466.535 315.266 466.535ZM315.686 457.98C316.46 457.98 317.043 457.785 317.434 457.395C317.824 457.004 318.02 456.434 318.02 455.686C318.02 454.885 317.821 454.286 317.424 453.889C317.027 453.485 316.441 453.283 315.666 453.283C314.924 453.283 314.351 453.492 313.947 453.908C313.55 454.318 313.352 454.921 313.352 455.715C313.352 456.444 313.553 457.004 313.957 457.395C314.361 457.785 314.937 457.98 315.686 457.98ZM332.316 457.629C332.316 458.508 332.202 459.292 331.975 459.982C331.747 460.673 331.418 461.255 330.988 461.73C330.559 462.206 330.038 462.57 329.426 462.824C328.82 463.072 328.133 463.195 327.365 463.195C326.649 463.195 325.992 463.072 325.393 462.824C324.8 462.57 324.286 462.206 323.85 461.73C323.42 461.255 323.085 460.673 322.844 459.982C322.609 459.292 322.492 458.508 322.492 457.629C322.492 456.457 322.691 455.461 323.088 454.641C323.485 453.814 324.051 453.186 324.787 452.756C325.529 452.32 326.411 452.102 327.434 452.102C328.41 452.102 329.263 452.32 329.992 452.756C330.728 453.192 331.298 453.824 331.701 454.65C332.111 455.471 332.316 456.464 332.316 457.629ZM324.172 457.629C324.172 458.488 324.286 459.234 324.514 459.865C324.742 460.497 325.093 460.985 325.568 461.33C326.044 461.675 326.656 461.848 327.404 461.848C328.146 461.848 328.755 461.675 329.23 461.33C329.712 460.985 330.067 460.497 330.295 459.865C330.523 459.234 330.637 458.488 330.637 457.629C330.637 456.776 330.523 456.04 330.295 455.422C330.067 454.797 329.715 454.315 329.24 453.977C328.765 453.638 328.15 453.469 327.395 453.469C326.281 453.469 325.464 453.837 324.943 454.572C324.429 455.308 324.172 456.327 324.172 457.629ZM339.982 452.102C340.197 452.102 340.422 452.115 340.656 452.141C340.891 452.16 341.099 452.189 341.281 452.229L341.076 453.732C340.9 453.687 340.705 453.651 340.49 453.625C340.275 453.599 340.074 453.586 339.885 453.586C339.455 453.586 339.048 453.674 338.664 453.85C338.286 454.019 337.954 454.266 337.668 454.592C337.382 454.911 337.157 455.298 336.994 455.754C336.831 456.203 336.75 456.704 336.75 457.258V463H335.119V452.297H336.467L336.643 454.27H336.711C336.932 453.872 337.199 453.511 337.512 453.186C337.824 452.854 338.186 452.59 338.596 452.395C339.012 452.199 339.475 452.102 339.982 452.102ZM347.424 452.102C348.335 452.102 349.117 452.303 349.768 452.707C350.419 453.111 350.917 453.677 351.262 454.406C351.607 455.129 351.779 455.975 351.779 456.945V457.951H344.387C344.406 459.208 344.719 460.165 345.324 460.822C345.93 461.48 346.783 461.809 347.883 461.809C348.56 461.809 349.159 461.747 349.68 461.623C350.201 461.499 350.741 461.317 351.301 461.076V462.502C350.76 462.743 350.223 462.919 349.689 463.029C349.162 463.14 348.537 463.195 347.814 463.195C346.786 463.195 345.887 462.987 345.119 462.57C344.357 462.147 343.765 461.529 343.342 460.715C342.919 459.901 342.707 458.905 342.707 457.727C342.707 456.574 342.899 455.578 343.283 454.738C343.674 453.892 344.221 453.241 344.924 452.785C345.633 452.329 346.467 452.102 347.424 452.102ZM347.404 453.43C346.538 453.43 345.848 453.713 345.334 454.279C344.82 454.846 344.514 455.637 344.416 456.652H350.08C350.074 456.014 349.973 455.454 349.777 454.973C349.589 454.484 349.299 454.107 348.908 453.84C348.518 453.566 348.016 453.43 347.404 453.43ZM361.408 463H353.605V461.926L359.475 453.566H353.977V452.297H361.281V453.498L355.49 461.74H361.408V463ZM375.529 452.102C376.708 452.102 377.596 452.411 378.195 453.029C378.794 453.641 379.094 454.628 379.094 455.988V463H377.492V456.066C377.492 455.201 377.303 454.553 376.926 454.123C376.555 453.687 376.001 453.469 375.266 453.469C374.23 453.469 373.479 453.768 373.01 454.367C372.541 454.966 372.307 455.848 372.307 457.014V463H370.695V456.066C370.695 455.487 370.611 455.005 370.441 454.621C370.279 454.237 370.031 453.951 369.699 453.762C369.374 453.566 368.96 453.469 368.459 453.469C367.749 453.469 367.18 453.615 366.75 453.908C366.32 454.201 366.008 454.637 365.812 455.217C365.624 455.79 365.529 456.496 365.529 457.336V463H363.908V452.297H365.217L365.461 453.811H365.549C365.764 453.439 366.034 453.127 366.359 452.873C366.685 452.619 367.049 452.427 367.453 452.297C367.857 452.167 368.286 452.102 368.742 452.102C369.556 452.102 370.236 452.255 370.783 452.561C371.337 452.86 371.737 453.319 371.984 453.938H372.072C372.424 453.319 372.906 452.86 373.518 452.561C374.13 452.255 374.8 452.102 375.529 452.102Z" fill="#0E181E"/>
<path d="M125.695 464.221H310.34V464.709H125.695V464.221ZM321.332 464.221H380.715V464.709H321.332V464.221Z" fill="#0E181E"/>
<a href="https://www.linkedin.com/in/diegorezm">
<rect fill="black" fill-opacity="0" x="5.19531" y="-0.118164" width="255.02" height="27.2363"/>
</a>
<rect width="282" height="117" transform="translate(456.5 352)" fill="#CB98AA"/>
<path d="M597.5 358.667C593.122 358.667 588.788 359.529 584.744 361.204C580.7 362.879 577.025 365.334 573.93 368.43C567.678 374.681 564.167 383.159 564.167 392C564.167 406.733 573.733 419.233 586.967 423.667C588.633 423.933 589.167 422.9 589.167 422V416.367C579.933 418.367 577.967 411.9 577.967 411.9C576.433 408.033 574.267 407 574.267 407C571.233 404.933 574.5 405 574.5 405C577.833 405.233 579.6 408.433 579.6 408.433C582.5 413.5 587.4 412 589.3 411.2C589.6 409.033 590.467 407.567 591.4 406.733C584 405.9 576.233 403.033 576.233 390.333C576.233 386.633 577.5 383.667 579.667 381.3C579.333 380.467 578.167 377 580 372.5C580 372.5 582.8 371.6 589.167 375.9C591.8 375.167 594.667 374.8 597.5 374.8C600.333 374.8 603.2 375.167 605.833 375.9C612.2 371.6 615 372.5 615 372.5C616.833 377 615.667 380.467 615.333 381.3C617.5 383.667 618.766 386.633 618.766 390.333C618.766 403.067 610.967 405.867 603.533 406.7C604.733 407.733 605.833 409.767 605.833 412.867V422C605.833 422.9 606.367 423.967 608.067 423.667C621.3 419.2 630.833 406.733 630.833 392C630.833 387.623 629.971 383.288 628.296 379.244C626.621 375.2 624.165 371.525 621.07 368.43C617.975 365.334 614.3 362.879 610.256 361.204C606.212 359.529 601.877 358.667 597.5 358.667Z" fill="#0E181E"/>
<path d="M496.197 467.805C494.791 467.805 493.707 467.541 492.945 467.014C492.184 466.493 491.803 465.76 491.803 464.816C491.803 464.146 492.014 463.573 492.438 463.098C492.867 462.622 493.46 462.307 494.215 462.15C493.935 462.02 493.694 461.825 493.492 461.564C493.297 461.304 493.199 461.005 493.199 460.666C493.199 460.275 493.307 459.934 493.521 459.641C493.743 459.341 494.078 459.055 494.527 458.781C493.967 458.553 493.512 458.169 493.16 457.629C492.815 457.082 492.643 456.447 492.643 455.725C492.643 454.956 492.802 454.302 493.121 453.762C493.44 453.215 493.902 452.798 494.508 452.512C495.113 452.225 495.846 452.082 496.705 452.082C496.894 452.082 497.083 452.092 497.271 452.111C497.467 452.124 497.652 452.147 497.828 452.18C498.004 452.206 498.157 452.238 498.287 452.277H501.959V453.322L499.986 453.566C500.182 453.82 500.344 454.126 500.475 454.484C500.605 454.842 500.67 455.24 500.67 455.676C500.67 456.743 500.309 457.593 499.586 458.225C498.863 458.85 497.87 459.162 496.607 459.162C496.308 459.162 496.002 459.136 495.689 459.084C495.37 459.26 495.126 459.455 494.957 459.67C494.794 459.885 494.713 460.132 494.713 460.412C494.713 460.62 494.775 460.786 494.898 460.91C495.029 461.034 495.214 461.125 495.455 461.184C495.696 461.236 495.986 461.262 496.324 461.262H498.209C499.374 461.262 500.266 461.506 500.885 461.994C501.51 462.482 501.822 463.195 501.822 464.133C501.822 465.318 501.34 466.226 500.377 466.857C499.413 467.489 498.02 467.805 496.197 467.805ZM496.246 466.535C497.132 466.535 497.864 466.444 498.443 466.262C499.029 466.086 499.465 465.829 499.752 465.49C500.045 465.158 500.191 464.761 500.191 464.299C500.191 463.869 500.094 463.544 499.898 463.322C499.703 463.107 499.417 462.964 499.039 462.893C498.661 462.814 498.199 462.775 497.652 462.775H495.797C495.315 462.775 494.895 462.85 494.537 463C494.179 463.15 493.902 463.371 493.707 463.664C493.518 463.957 493.424 464.322 493.424 464.758C493.424 465.337 493.668 465.777 494.156 466.076C494.645 466.382 495.341 466.535 496.246 466.535ZM496.666 457.98C497.441 457.98 498.023 457.785 498.414 457.395C498.805 457.004 499 456.434 499 455.686C499 454.885 498.801 454.286 498.404 453.889C498.007 453.485 497.421 453.283 496.646 453.283C495.904 453.283 495.331 453.492 494.928 453.908C494.531 454.318 494.332 454.921 494.332 455.715C494.332 456.444 494.534 457.004 494.938 457.395C495.341 457.785 495.917 457.98 496.666 457.98ZM505.689 452.297V463H504.068V452.297H505.689ZM504.898 448.293C505.165 448.293 505.393 448.381 505.582 448.557C505.777 448.726 505.875 448.993 505.875 449.357C505.875 449.715 505.777 449.982 505.582 450.158C505.393 450.334 505.165 450.422 504.898 450.422C504.618 450.422 504.384 450.334 504.195 450.158C504.013 449.982 503.922 449.715 503.922 449.357C503.922 448.993 504.013 448.726 504.195 448.557C504.384 448.381 504.618 448.293 504.898 448.293ZM512.584 461.867C512.851 461.867 513.124 461.844 513.404 461.799C513.684 461.753 513.912 461.698 514.088 461.633V462.893C513.899 462.977 513.635 463.049 513.297 463.107C512.965 463.166 512.639 463.195 512.32 463.195C511.754 463.195 511.24 463.098 510.777 462.902C510.315 462.701 509.944 462.362 509.664 461.887C509.391 461.411 509.254 460.754 509.254 459.914V453.566H507.73V452.775L509.264 452.141L509.908 449.816H510.885V452.297H514.02V453.566H510.885V459.865C510.885 460.536 511.038 461.037 511.344 461.369C511.656 461.701 512.07 461.867 512.584 461.867ZM517.877 447.805V452.346C517.877 452.606 517.87 452.87 517.857 453.137C517.844 453.397 517.822 453.638 517.789 453.859H517.896C518.118 453.482 518.398 453.166 518.736 452.912C519.081 452.652 519.472 452.456 519.908 452.326C520.344 452.189 520.807 452.121 521.295 452.121C522.154 452.121 522.87 452.258 523.443 452.531C524.023 452.805 524.456 453.228 524.742 453.801C525.035 454.374 525.182 455.116 525.182 456.027V463H523.58V456.135C523.58 455.243 523.375 454.576 522.965 454.133C522.561 453.69 521.939 453.469 521.1 453.469C520.305 453.469 519.671 453.622 519.195 453.928C518.727 454.227 518.388 454.67 518.18 455.256C517.978 455.842 517.877 456.558 517.877 457.404V463H516.256V447.805H517.877ZM537.359 452.297V463H536.031L535.797 461.496H535.709C535.488 461.867 535.201 462.18 534.85 462.434C534.498 462.688 534.101 462.876 533.658 463C533.222 463.13 532.757 463.195 532.262 463.195C531.415 463.195 530.706 463.059 530.133 462.785C529.56 462.512 529.127 462.089 528.834 461.516C528.548 460.943 528.404 460.207 528.404 459.309V452.297H530.045V459.191C530.045 460.083 530.247 460.751 530.65 461.193C531.054 461.63 531.669 461.848 532.496 461.848C533.29 461.848 533.922 461.698 534.391 461.398C534.866 461.099 535.208 460.66 535.416 460.08C535.624 459.494 535.729 458.778 535.729 457.932V452.297H537.359ZM542.408 447.805V451.604C542.408 452.04 542.395 452.463 542.369 452.873C542.35 453.283 542.333 453.602 542.32 453.83H542.408C542.701 453.348 543.124 452.941 543.678 452.609C544.231 452.277 544.938 452.111 545.797 452.111C547.138 452.111 548.206 452.577 549 453.508C549.801 454.432 550.201 455.809 550.201 457.639C550.201 458.843 550.019 459.859 549.654 460.686C549.29 461.512 548.775 462.137 548.111 462.561C547.447 462.984 546.663 463.195 545.758 463.195C544.911 463.195 544.215 463.039 543.668 462.727C543.128 462.408 542.711 462.02 542.418 461.564H542.291L541.959 463H540.787V447.805H542.408ZM545.533 453.469C544.758 453.469 544.143 453.622 543.688 453.928C543.232 454.227 542.903 454.683 542.701 455.295C542.506 455.9 542.408 456.669 542.408 457.6V457.688C542.408 459.035 542.633 460.067 543.082 460.783C543.531 461.493 544.348 461.848 545.533 461.848C546.529 461.848 547.275 461.483 547.77 460.754C548.271 460.025 548.521 458.983 548.521 457.629C548.521 456.249 548.274 455.21 547.779 454.514C547.291 453.817 546.542 453.469 545.533 453.469ZM552.789 461.984C552.789 461.529 552.9 461.206 553.121 461.018C553.342 460.822 553.613 460.725 553.932 460.725C554.264 460.725 554.544 460.822 554.771 461.018C554.999 461.206 555.113 461.529 555.113 461.984C555.113 462.434 554.999 462.762 554.771 462.971C554.544 463.173 554.264 463.273 553.932 463.273C553.613 463.273 553.342 463.173 553.121 462.971C552.9 462.762 552.789 462.434 552.789 461.984ZM562.574 463.195C561.611 463.195 560.761 462.997 560.025 462.6C559.29 462.202 558.717 461.597 558.307 460.783C557.896 459.969 557.691 458.944 557.691 457.707C557.691 456.411 557.906 455.354 558.336 454.533C558.772 453.706 559.371 453.094 560.133 452.697C560.895 452.3 561.76 452.102 562.73 452.102C563.264 452.102 563.779 452.157 564.273 452.268C564.775 452.372 565.185 452.505 565.504 452.668L565.016 454.025C564.69 453.895 564.312 453.778 563.883 453.674C563.46 453.57 563.062 453.518 562.691 453.518C561.949 453.518 561.331 453.677 560.836 453.996C560.348 454.315 559.98 454.784 559.732 455.402C559.492 456.021 559.371 456.783 559.371 457.688C559.371 458.553 559.488 459.292 559.723 459.904C559.964 460.516 560.318 460.985 560.787 461.311C561.262 461.63 561.855 461.789 562.564 461.789C563.131 461.789 563.642 461.73 564.098 461.613C564.553 461.49 564.967 461.346 565.338 461.184V462.629C564.98 462.811 564.579 462.951 564.137 463.049C563.701 463.146 563.18 463.195 562.574 463.195ZM577.105 457.629C577.105 458.508 576.992 459.292 576.764 459.982C576.536 460.673 576.207 461.255 575.777 461.73C575.348 462.206 574.827 462.57 574.215 462.824C573.609 463.072 572.923 463.195 572.154 463.195C571.438 463.195 570.781 463.072 570.182 462.824C569.589 462.57 569.075 462.206 568.639 461.73C568.209 461.255 567.874 460.673 567.633 459.982C567.398 459.292 567.281 458.508 567.281 457.629C567.281 456.457 567.48 455.461 567.877 454.641C568.274 453.814 568.84 453.186 569.576 452.756C570.318 452.32 571.201 452.102 572.223 452.102C573.199 452.102 574.052 452.32 574.781 452.756C575.517 453.192 576.087 453.824 576.49 454.65C576.9 455.471 577.105 456.464 577.105 457.629ZM568.961 457.629C568.961 458.488 569.075 459.234 569.303 459.865C569.531 460.497 569.882 460.985 570.357 461.33C570.833 461.675 571.445 461.848 572.193 461.848C572.936 461.848 573.544 461.675 574.02 461.33C574.501 460.985 574.856 460.497 575.084 459.865C575.312 459.234 575.426 458.488 575.426 457.629C575.426 456.776 575.312 456.04 575.084 455.422C574.856 454.797 574.505 454.315 574.029 453.977C573.554 453.638 572.939 453.469 572.184 453.469C571.07 453.469 570.253 453.837 569.732 454.572C569.218 455.308 568.961 456.327 568.961 457.629ZM591.529 452.102C592.708 452.102 593.596 452.411 594.195 453.029C594.794 453.641 595.094 454.628 595.094 455.988V463H593.492V456.066C593.492 455.201 593.303 454.553 592.926 454.123C592.555 453.687 592.001 453.469 591.266 453.469C590.23 453.469 589.479 453.768 589.01 454.367C588.541 454.966 588.307 455.848 588.307 457.014V463H586.695V456.066C586.695 455.487 586.611 455.005 586.441 454.621C586.279 454.237 586.031 453.951 585.699 453.762C585.374 453.566 584.96 453.469 584.459 453.469C583.749 453.469 583.18 453.615 582.75 453.908C582.32 454.201 582.008 454.637 581.812 455.217C581.624 455.79 581.529 456.496 581.529 457.336V463H579.908V452.297H581.217L581.461 453.811H581.549C581.764 453.439 582.034 453.127 582.359 452.873C582.685 452.619 583.049 452.427 583.453 452.297C583.857 452.167 584.286 452.102 584.742 452.102C585.556 452.102 586.236 452.255 586.783 452.561C587.337 452.86 587.737 453.319 587.984 453.938H588.072C588.424 453.319 588.906 452.86 589.518 452.561C590.13 452.255 590.8 452.102 591.529 452.102ZM603.834 448.723L598.521 463H596.92L602.242 448.723H603.834ZM609.576 463.195C608.222 463.195 607.148 462.733 606.354 461.809C605.566 460.884 605.172 459.51 605.172 457.688C605.172 455.845 605.576 454.455 606.383 453.518C607.19 452.574 608.264 452.102 609.605 452.102C610.172 452.102 610.667 452.176 611.09 452.326C611.513 452.476 611.878 452.678 612.184 452.932C612.49 453.179 612.747 453.462 612.955 453.781H613.072C613.046 453.579 613.02 453.303 612.994 452.951C612.968 452.6 612.955 452.313 612.955 452.092V447.805H614.576V463H613.268L613.023 461.477H612.955C612.753 461.796 612.496 462.085 612.184 462.346C611.878 462.606 611.51 462.814 611.08 462.971C610.657 463.12 610.156 463.195 609.576 463.195ZM609.83 461.848C610.976 461.848 611.786 461.522 612.262 460.871C612.737 460.22 612.975 459.253 612.975 457.971V457.678C612.975 456.317 612.747 455.272 612.291 454.543C611.842 453.814 611.021 453.449 609.83 453.449C608.834 453.449 608.089 453.833 607.594 454.602C607.099 455.363 606.852 456.405 606.852 457.727C606.852 459.042 607.096 460.057 607.584 460.773C608.079 461.49 608.827 461.848 609.83 461.848ZM619.635 452.297V463H618.014V452.297H619.635ZM618.844 448.293C619.111 448.293 619.339 448.381 619.527 448.557C619.723 448.726 619.82 448.993 619.82 449.357C619.82 449.715 619.723 449.982 619.527 450.158C619.339 450.334 619.111 450.422 618.844 450.422C618.564 450.422 618.329 450.334 618.141 450.158C617.958 449.982 617.867 449.715 617.867 449.357C617.867 448.993 617.958 448.726 618.141 448.557C618.329 448.381 618.564 448.293 618.844 448.293ZM627.193 452.102C628.105 452.102 628.886 452.303 629.537 452.707C630.188 453.111 630.686 453.677 631.031 454.406C631.376 455.129 631.549 455.975 631.549 456.945V457.951H624.156C624.176 459.208 624.488 460.165 625.094 460.822C625.699 461.48 626.552 461.809 627.652 461.809C628.329 461.809 628.928 461.747 629.449 461.623C629.97 461.499 630.51 461.317 631.07 461.076V462.502C630.53 462.743 629.993 462.919 629.459 463.029C628.932 463.14 628.307 463.195 627.584 463.195C626.555 463.195 625.657 462.987 624.889 462.57C624.127 462.147 623.535 461.529 623.111 460.715C622.688 459.901 622.477 458.905 622.477 457.727C622.477 456.574 622.669 455.578 623.053 454.738C623.443 453.892 623.99 453.241 624.693 452.785C625.403 452.329 626.236 452.102 627.193 452.102ZM627.174 453.43C626.308 453.43 625.618 453.713 625.104 454.279C624.589 454.846 624.283 455.637 624.186 456.652H629.85C629.843 456.014 629.742 455.454 629.547 454.973C629.358 454.484 629.068 454.107 628.678 453.84C628.287 453.566 627.786 453.43 627.174 453.43ZM637.291 467.805C635.885 467.805 634.801 467.541 634.039 467.014C633.277 466.493 632.896 465.76 632.896 464.816C632.896 464.146 633.108 463.573 633.531 463.098C633.961 462.622 634.553 462.307 635.309 462.15C635.029 462.02 634.788 461.825 634.586 461.564C634.391 461.304 634.293 461.005 634.293 460.666C634.293 460.275 634.4 459.934 634.615 459.641C634.837 459.341 635.172 459.055 635.621 458.781C635.061 458.553 634.605 458.169 634.254 457.629C633.909 457.082 633.736 456.447 633.736 455.725C633.736 454.956 633.896 454.302 634.215 453.762C634.534 453.215 634.996 452.798 635.602 452.512C636.207 452.225 636.939 452.082 637.799 452.082C637.988 452.082 638.176 452.092 638.365 452.111C638.561 452.124 638.746 452.147 638.922 452.18C639.098 452.206 639.251 452.238 639.381 452.277H643.053V453.322L641.08 453.566C641.275 453.82 641.438 454.126 641.568 454.484C641.699 454.842 641.764 455.24 641.764 455.676C641.764 456.743 641.402 457.593 640.68 458.225C639.957 458.85 638.964 459.162 637.701 459.162C637.402 459.162 637.096 459.136 636.783 459.084C636.464 459.26 636.22 459.455 636.051 459.67C635.888 459.885 635.807 460.132 635.807 460.412C635.807 460.62 635.868 460.786 635.992 460.91C636.122 461.034 636.308 461.125 636.549 461.184C636.79 461.236 637.079 461.262 637.418 461.262H639.303C640.468 461.262 641.36 461.506 641.979 461.994C642.604 462.482 642.916 463.195 642.916 464.133C642.916 465.318 642.434 466.226 641.471 466.857C640.507 467.489 639.114 467.805 637.291 467.805ZM637.34 466.535C638.225 466.535 638.958 466.444 639.537 466.262C640.123 466.086 640.559 465.829 640.846 465.49C641.139 465.158 641.285 464.761 641.285 464.299C641.285 463.869 641.188 463.544 640.992 463.322C640.797 463.107 640.51 462.964 640.133 462.893C639.755 462.814 639.293 462.775 638.746 462.775H636.891C636.409 462.775 635.989 462.85 635.631 463C635.273 463.15 634.996 463.371 634.801 463.664C634.612 463.957 634.518 464.322 634.518 464.758C634.518 465.337 634.762 465.777 635.25 466.076C635.738 466.382 636.435 466.535 637.34 466.535ZM637.76 457.98C638.535 457.98 639.117 457.785 639.508 457.395C639.898 457.004 640.094 456.434 640.094 455.686C640.094 454.885 639.895 454.286 639.498 453.889C639.101 453.485 638.515 453.283 637.74 453.283C636.998 453.283 636.425 453.492 636.021 453.908C635.624 454.318 635.426 454.921 635.426 455.715C635.426 456.444 635.628 457.004 636.031 457.395C636.435 457.785 637.011 457.98 637.76 457.98ZM654.391 457.629C654.391 458.508 654.277 459.292 654.049 459.982C653.821 460.673 653.492 461.255 653.062 461.73C652.633 462.206 652.112 462.57 651.5 462.824C650.895 463.072 650.208 463.195 649.439 463.195C648.723 463.195 648.066 463.072 647.467 462.824C646.874 462.57 646.36 462.206 645.924 461.73C645.494 461.255 645.159 460.673 644.918 459.982C644.684 459.292 644.566 458.508 644.566 457.629C644.566 456.457 644.765 455.461 645.162 454.641C645.559 453.814 646.126 453.186 646.861 452.756C647.604 452.32 648.486 452.102 649.508 452.102C650.484 452.102 651.337 452.32 652.066 452.756C652.802 453.192 653.372 453.824 653.775 454.65C654.186 455.471 654.391 456.464 654.391 457.629ZM646.246 457.629C646.246 458.488 646.36 459.234 646.588 459.865C646.816 460.497 647.167 460.985 647.643 461.33C648.118 461.675 648.73 461.848 649.479 461.848C650.221 461.848 650.829 461.675 651.305 461.33C651.786 460.985 652.141 460.497 652.369 459.865C652.597 459.234 652.711 458.488 652.711 457.629C652.711 456.776 652.597 456.04 652.369 455.422C652.141 454.797 651.79 454.315 651.314 453.977C650.839 453.638 650.224 453.469 649.469 453.469C648.355 453.469 647.538 453.837 647.018 454.572C646.503 455.308 646.246 456.327 646.246 457.629ZM662.057 452.102C662.271 452.102 662.496 452.115 662.73 452.141C662.965 452.16 663.173 452.189 663.355 452.229L663.15 453.732C662.975 453.687 662.779 453.651 662.564 453.625C662.35 453.599 662.148 453.586 661.959 453.586C661.529 453.586 661.122 453.674 660.738 453.85C660.361 454.019 660.029 454.266 659.742 454.592C659.456 454.911 659.231 455.298 659.068 455.754C658.906 456.203 658.824 456.704 658.824 457.258V463H657.193V452.297H658.541L658.717 454.27H658.785C659.007 453.872 659.273 453.511 659.586 453.186C659.898 452.854 660.26 452.59 660.67 452.395C661.087 452.199 661.549 452.102 662.057 452.102ZM669.498 452.102C670.41 452.102 671.191 452.303 671.842 452.707C672.493 453.111 672.991 453.677 673.336 454.406C673.681 455.129 673.854 455.975 673.854 456.945V457.951H666.461C666.48 459.208 666.793 460.165 667.398 460.822C668.004 461.48 668.857 461.809 669.957 461.809C670.634 461.809 671.233 461.747 671.754 461.623C672.275 461.499 672.815 461.317 673.375 461.076V462.502C672.835 462.743 672.298 462.919 671.764 463.029C671.236 463.14 670.611 463.195 669.889 463.195C668.86 463.195 667.962 462.987 667.193 462.57C666.432 462.147 665.839 461.529 665.416 460.715C664.993 459.901 664.781 458.905 664.781 457.727C664.781 456.574 664.973 455.578 665.357 454.738C665.748 453.892 666.295 453.241 666.998 452.785C667.708 452.329 668.541 452.102 669.498 452.102ZM669.479 453.43C668.613 453.43 667.923 453.713 667.408 454.279C666.894 454.846 666.588 455.637 666.49 456.652H672.154C672.148 456.014 672.047 455.454 671.852 454.973C671.663 454.484 671.373 454.107 670.982 453.84C670.592 453.566 670.09 453.43 669.479 453.43ZM683.482 463H675.68V461.926L681.549 453.566H676.051V452.297H683.355V453.498L677.564 461.74H683.482V463ZM697.604 452.102C698.782 452.102 699.671 452.411 700.27 453.029C700.868 453.641 701.168 454.628 701.168 455.988V463H699.566V456.066C699.566 455.201 699.378 454.553 699 454.123C698.629 453.687 698.076 453.469 697.34 453.469C696.305 453.469 695.553 453.768 695.084 454.367C694.615 454.966 694.381 455.848 694.381 457.014V463H692.77V456.066C692.77 455.487 692.685 455.005 692.516 454.621C692.353 454.237 692.105 453.951 691.773 453.762C691.448 453.566 691.035 453.469 690.533 453.469C689.824 453.469 689.254 453.615 688.824 453.908C688.395 454.201 688.082 454.637 687.887 455.217C687.698 455.79 687.604 456.496 687.604 457.336V463H685.982V452.297H687.291L687.535 453.811H687.623C687.838 453.439 688.108 453.127 688.434 452.873C688.759 452.619 689.124 452.427 689.527 452.297C689.931 452.167 690.361 452.102 690.816 452.102C691.63 452.102 692.311 452.255 692.857 452.561C693.411 452.86 693.811 453.319 694.059 453.938H694.146C694.498 453.319 694.98 452.86 695.592 452.561C696.204 452.255 696.874 452.102 697.604 452.102Z" fill="#0E181E"/>
<rect width="335" height="117" transform="translate(778.5 352)" fill="#CB98AA"/>
<path d="M919.333 365.333H972.667C976.333 365.333 979.3 368.333 979.3 372L979.333 412C979.333 415.667 976.333 418.667 972.667 418.667H919.333C915.667 418.667 912.667 415.667 912.667 412V372C912.667 368.333 915.667 365.333 919.333 365.333ZM919.333 378.667L946 395.333L972.667 378.667V372L946 388.667L919.333 372V378.667Z" fill="#0E181E"/>
<path d="M829.408 463.195C828.054 463.195 826.98 462.733 826.186 461.809C825.398 460.884 825.004 459.51 825.004 457.688C825.004 455.845 825.408 454.455 826.215 453.518C827.022 452.574 828.096 452.102 829.438 452.102C830.004 452.102 830.499 452.176 830.922 452.326C831.345 452.476 831.71 452.678 832.016 452.932C832.322 453.179 832.579 453.462 832.787 453.781H832.904C832.878 453.579 832.852 453.303 832.826 452.951C832.8 452.6 832.787 452.313 832.787 452.092V447.805H834.408V463H833.1L832.855 461.477H832.787C832.585 461.796 832.328 462.085 832.016 462.346C831.71 462.606 831.342 462.814 830.912 462.971C830.489 463.12 829.988 463.195 829.408 463.195ZM829.662 461.848C830.808 461.848 831.618 461.522 832.094 460.871C832.569 460.22 832.807 459.253 832.807 457.971V457.678C832.807 456.317 832.579 455.272 832.123 454.543C831.674 453.814 830.854 453.449 829.662 453.449C828.666 453.449 827.921 453.833 827.426 454.602C826.931 455.363 826.684 456.405 826.684 457.727C826.684 459.042 826.928 460.057 827.416 460.773C827.911 461.49 828.66 461.848 829.662 461.848ZM839.467 452.297V463H837.846V452.297H839.467ZM838.676 448.293C838.943 448.293 839.171 448.381 839.359 448.557C839.555 448.726 839.652 448.993 839.652 449.357C839.652 449.715 839.555 449.982 839.359 450.158C839.171 450.334 838.943 450.422 838.676 450.422C838.396 450.422 838.161 450.334 837.973 450.158C837.79 449.982 837.699 449.715 837.699 449.357C837.699 448.993 837.79 448.726 837.973 448.557C838.161 448.381 838.396 448.293 838.676 448.293ZM847.025 452.102C847.937 452.102 848.718 452.303 849.369 452.707C850.02 453.111 850.518 453.677 850.863 454.406C851.208 455.129 851.381 455.975 851.381 456.945V457.951H843.988C844.008 459.208 844.32 460.165 844.926 460.822C845.531 461.48 846.384 461.809 847.484 461.809C848.161 461.809 848.76 461.747 849.281 461.623C849.802 461.499 850.342 461.317 850.902 461.076V462.502C850.362 462.743 849.825 462.919 849.291 463.029C848.764 463.14 848.139 463.195 847.416 463.195C846.387 463.195 845.489 462.987 844.721 462.57C843.959 462.147 843.367 461.529 842.943 460.715C842.52 459.901 842.309 458.905 842.309 457.727C842.309 456.574 842.501 455.578 842.885 454.738C843.275 453.892 843.822 453.241 844.525 452.785C845.235 452.329 846.068 452.102 847.025 452.102ZM847.006 453.43C846.14 453.43 845.45 453.713 844.936 454.279C844.421 454.846 844.115 455.637 844.018 456.652H849.682C849.675 456.014 849.574 455.454 849.379 454.973C849.19 454.484 848.9 454.107 848.51 453.84C848.119 453.566 847.618 453.43 847.006 453.43ZM857.123 467.805C855.717 467.805 854.633 467.541 853.871 467.014C853.109 466.493 852.729 465.76 852.729 464.816C852.729 464.146 852.94 463.573 853.363 463.098C853.793 462.622 854.385 462.307 855.141 462.15C854.861 462.02 854.62 461.825 854.418 461.564C854.223 461.304 854.125 461.005 854.125 460.666C854.125 460.275 854.232 459.934 854.447 459.641C854.669 459.341 855.004 459.055 855.453 458.781C854.893 458.553 854.438 458.169 854.086 457.629C853.741 457.082 853.568 456.447 853.568 455.725C853.568 454.956 853.728 454.302 854.047 453.762C854.366 453.215 854.828 452.798 855.434 452.512C856.039 452.225 856.771 452.082 857.631 452.082C857.82 452.082 858.008 452.092 858.197 452.111C858.393 452.124 858.578 452.147 858.754 452.18C858.93 452.206 859.083 452.238 859.213 452.277H862.885V453.322L860.912 453.566C861.107 453.82 861.27 454.126 861.4 454.484C861.531 454.842 861.596 455.24 861.596 455.676C861.596 456.743 861.234 457.593 860.512 458.225C859.789 458.85 858.796 459.162 857.533 459.162C857.234 459.162 856.928 459.136 856.615 459.084C856.296 459.26 856.052 459.455 855.883 459.67C855.72 459.885 855.639 460.132 855.639 460.412C855.639 460.62 855.701 460.786 855.824 460.91C855.954 461.034 856.14 461.125 856.381 461.184C856.622 461.236 856.911 461.262 857.25 461.262H859.135C860.3 461.262 861.192 461.506 861.811 461.994C862.436 462.482 862.748 463.195 862.748 464.133C862.748 465.318 862.266 466.226 861.303 466.857C860.339 467.489 858.946 467.805 857.123 467.805ZM857.172 466.535C858.057 466.535 858.79 466.444 859.369 466.262C859.955 466.086 860.391 465.829 860.678 465.49C860.971 465.158 861.117 464.761 861.117 464.299C861.117 463.869 861.02 463.544 860.824 463.322C860.629 463.107 860.342 462.964 859.965 462.893C859.587 462.814 859.125 462.775 858.578 462.775H856.723C856.241 462.775 855.821 462.85 855.463 463C855.105 463.15 854.828 463.371 854.633 463.664C854.444 463.957 854.35 464.322 854.35 464.758C854.35 465.337 854.594 465.777 855.082 466.076C855.57 466.382 856.267 466.535 857.172 466.535ZM857.592 457.98C858.367 457.98 858.949 457.785 859.34 457.395C859.73 457.004 859.926 456.434 859.926 455.686C859.926 454.885 859.727 454.286 859.33 453.889C858.933 453.485 858.347 453.283 857.572 453.283C856.83 453.283 856.257 453.492 855.854 453.908C855.456 454.318 855.258 454.921 855.258 455.715C855.258 456.444 855.46 457.004 855.863 457.395C856.267 457.785 856.843 457.98 857.592 457.98ZM874.223 457.629C874.223 458.508 874.109 459.292 873.881 459.982C873.653 460.673 873.324 461.255 872.895 461.73C872.465 462.206 871.944 462.57 871.332 462.824C870.727 463.072 870.04 463.195 869.271 463.195C868.555 463.195 867.898 463.072 867.299 462.824C866.706 462.57 866.192 462.206 865.756 461.73C865.326 461.255 864.991 460.673 864.75 459.982C864.516 459.292 864.398 458.508 864.398 457.629C864.398 456.457 864.597 455.461 864.994 454.641C865.391 453.814 865.958 453.186 866.693 452.756C867.436 452.32 868.318 452.102 869.34 452.102C870.316 452.102 871.169 452.32 871.898 452.756C872.634 453.192 873.204 453.824 873.607 454.65C874.018 455.471 874.223 456.464 874.223 457.629ZM866.078 457.629C866.078 458.488 866.192 459.234 866.42 459.865C866.648 460.497 866.999 460.985 867.475 461.33C867.95 461.675 868.562 461.848 869.311 461.848C870.053 461.848 870.661 461.675 871.137 461.33C871.618 460.985 871.973 460.497 872.201 459.865C872.429 459.234 872.543 458.488 872.543 457.629C872.543 456.776 872.429 456.04 872.201 455.422C871.973 454.797 871.622 454.315 871.146 453.977C870.671 453.638 870.056 453.469 869.301 453.469C868.188 453.469 867.37 453.837 866.85 454.572C866.335 455.308 866.078 456.327 866.078 457.629ZM888.646 452.102C889.825 452.102 890.714 452.411 891.312 453.029C891.911 453.641 892.211 454.628 892.211 455.988V463H890.609V456.066C890.609 455.201 890.421 454.553 890.043 454.123C889.672 453.687 889.118 453.469 888.383 453.469C887.348 453.469 886.596 453.768 886.127 454.367C885.658 454.966 885.424 455.848 885.424 457.014V463H883.812V456.066C883.812 455.487 883.728 455.005 883.559 454.621C883.396 454.237 883.148 453.951 882.816 453.762C882.491 453.566 882.077 453.469 881.576 453.469C880.867 453.469 880.297 453.615 879.867 453.908C879.438 454.201 879.125 454.637 878.93 455.217C878.741 455.79 878.646 456.496 878.646 457.336V463H877.025V452.297H878.334L878.578 453.811H878.666C878.881 453.439 879.151 453.127 879.477 452.873C879.802 452.619 880.167 452.427 880.57 452.297C880.974 452.167 881.404 452.102 881.859 452.102C882.673 452.102 883.354 452.255 883.9 452.561C884.454 452.86 884.854 453.319 885.102 453.938H885.189C885.541 453.319 886.023 452.86 886.635 452.561C887.247 452.255 887.917 452.102 888.646 452.102ZM907.162 452.102C908.34 452.102 909.229 452.411 909.828 453.029C910.427 453.641 910.727 454.628 910.727 455.988V463H909.125V456.066C909.125 455.201 908.936 454.553 908.559 454.123C908.188 453.687 907.634 453.469 906.898 453.469C905.863 453.469 905.111 453.768 904.643 454.367C904.174 454.966 903.939 455.848 903.939 457.014V463H902.328V456.066C902.328 455.487 902.243 455.005 902.074 454.621C901.911 454.237 901.664 453.951 901.332 453.762C901.007 453.566 900.593 453.469 900.092 453.469C899.382 453.469 898.812 453.615 898.383 453.908C897.953 454.201 897.641 454.637 897.445 455.217C897.257 455.79 897.162 456.496 897.162 457.336V463H895.541V452.297H896.85L897.094 453.811H897.182C897.396 453.439 897.667 453.127 897.992 452.873C898.318 452.619 898.682 452.427 899.086 452.297C899.49 452.167 899.919 452.102 900.375 452.102C901.189 452.102 901.869 452.255 902.416 452.561C902.969 452.86 903.37 453.319 903.617 453.938H903.705C904.057 453.319 904.538 452.86 905.15 452.561C905.762 452.255 906.433 452.102 907.162 452.102ZM918.92 452.102C919.135 452.102 919.359 452.115 919.594 452.141C919.828 452.16 920.036 452.189 920.219 452.229L920.014 453.732C919.838 453.687 919.643 453.651 919.428 453.625C919.213 453.599 919.011 453.586 918.822 453.586C918.393 453.586 917.986 453.674 917.602 453.85C917.224 454.019 916.892 454.266 916.605 454.592C916.319 454.911 916.094 455.298 915.932 455.754C915.769 456.203 915.688 456.704 915.688 457.258V463H914.057V452.297H915.404L915.58 454.27H915.648C915.87 453.872 916.137 453.511 916.449 453.186C916.762 452.854 917.123 452.59 917.533 452.395C917.95 452.199 918.412 452.102 918.92 452.102ZM926.361 452.102C927.273 452.102 928.054 452.303 928.705 452.707C929.356 453.111 929.854 453.677 930.199 454.406C930.544 455.129 930.717 455.975 930.717 456.945V457.951H923.324C923.344 459.208 923.656 460.165 924.262 460.822C924.867 461.48 925.72 461.809 926.82 461.809C927.497 461.809 928.096 461.747 928.617 461.623C929.138 461.499 929.678 461.317 930.238 461.076V462.502C929.698 462.743 929.161 462.919 928.627 463.029C928.1 463.14 927.475 463.195 926.752 463.195C925.723 463.195 924.825 462.987 924.057 462.57C923.295 462.147 922.702 461.529 922.279 460.715C921.856 459.901 921.645 458.905 921.645 457.727C921.645 456.574 921.837 455.578 922.221 454.738C922.611 453.892 923.158 453.241 923.861 452.785C924.571 452.329 925.404 452.102 926.361 452.102ZM926.342 453.43C925.476 453.43 924.786 453.713 924.271 454.279C923.757 454.846 923.451 455.637 923.354 456.652H929.018C929.011 456.014 928.91 455.454 928.715 454.973C928.526 454.484 928.236 454.107 927.846 453.84C927.455 453.566 926.954 453.43 926.342 453.43ZM940.346 463H932.543V461.926L938.412 453.566H932.914V452.297H940.219V453.498L934.428 461.74H940.346V463ZM948.158 463H946.576V452.883C946.576 452.499 946.576 452.17 946.576 451.896C946.583 451.617 946.589 451.363 946.596 451.135C946.609 450.9 946.625 450.663 946.645 450.422C946.443 450.63 946.254 450.809 946.078 450.959C945.902 451.102 945.684 451.281 945.424 451.496L943.793 452.805L942.943 451.701L946.811 448.723H948.158V463ZM962.924 463H953.568V461.643L957.387 457.766C958.096 457.049 958.692 456.411 959.174 455.852C959.662 455.292 960.033 454.742 960.287 454.201C960.541 453.654 960.668 453.055 960.668 452.404C960.668 451.597 960.427 450.982 959.945 450.559C959.47 450.129 958.842 449.914 958.061 449.914C957.377 449.914 956.771 450.031 956.244 450.266C955.717 450.5 955.176 450.832 954.623 451.262L953.754 450.168C954.132 449.849 954.542 449.566 954.984 449.318C955.434 449.071 955.912 448.876 956.42 448.732C956.934 448.589 957.481 448.518 958.061 448.518C958.939 448.518 959.698 448.671 960.336 448.977C960.974 449.283 961.465 449.719 961.811 450.285C962.162 450.852 962.338 451.525 962.338 452.307C962.338 453.062 962.188 453.765 961.889 454.416C961.589 455.061 961.169 455.702 960.629 456.34C960.089 456.971 959.457 457.642 958.734 458.352L955.629 461.447V461.516H962.924V463ZM980.814 455.871C980.814 456.49 980.743 457.095 980.6 457.688C980.463 458.273 980.251 458.804 979.965 459.279C979.678 459.748 979.32 460.122 978.891 460.402C978.467 460.682 977.966 460.822 977.387 460.822C976.781 460.822 976.299 460.646 975.941 460.295C975.583 459.943 975.368 459.527 975.297 459.045H975.209C974.962 459.559 974.597 459.986 974.115 460.324C973.64 460.656 973.054 460.822 972.357 460.822C971.342 460.822 970.557 460.487 970.004 459.816C969.457 459.139 969.184 458.241 969.184 457.121C969.184 456.249 969.356 455.477 969.701 454.807C970.053 454.13 970.544 453.599 971.176 453.215C971.814 452.824 972.566 452.629 973.432 452.629C974.011 452.629 974.574 452.678 975.121 452.775C975.668 452.873 976.104 452.98 976.43 453.098L976.234 457.033C976.228 457.274 976.221 457.46 976.215 457.59C976.208 457.714 976.205 457.811 976.205 457.883C976.205 458.586 976.329 459.061 976.576 459.309C976.83 459.549 977.136 459.67 977.494 459.67C977.93 459.67 978.295 459.501 978.588 459.162C978.887 458.817 979.115 458.358 979.271 457.785C979.428 457.206 979.506 456.564 979.506 455.861C979.506 454.618 979.255 453.557 978.754 452.678C978.253 451.799 977.559 451.128 976.674 450.666C975.795 450.204 974.783 449.973 973.637 449.973C972.497 449.973 971.485 450.152 970.6 450.51C969.721 450.868 968.975 451.376 968.363 452.033C967.758 452.684 967.299 453.459 966.986 454.357C966.674 455.256 966.518 456.249 966.518 457.336C966.518 458.664 966.752 459.794 967.221 460.725C967.696 461.656 968.389 462.365 969.301 462.854C970.219 463.335 971.335 463.576 972.65 463.576C973.445 463.576 974.21 463.488 974.945 463.312C975.681 463.137 976.339 462.938 976.918 462.717V463.986C976.345 464.227 975.704 464.423 974.994 464.572C974.285 464.729 973.503 464.807 972.65 464.807C971.081 464.807 969.74 464.51 968.627 463.918C967.514 463.332 966.661 462.486 966.068 461.379C965.476 460.272 965.18 458.944 965.18 457.395C965.18 456.138 965.372 454.982 965.756 453.928C966.146 452.873 966.706 451.958 967.436 451.184C968.171 450.409 969.06 449.81 970.102 449.387C971.15 448.957 972.328 448.742 973.637 448.742C975.036 448.742 976.273 449.032 977.348 449.611C978.428 450.184 979.275 451.005 979.887 452.072C980.505 453.133 980.814 454.4 980.814 455.871ZM970.639 457.16C970.639 458.026 970.811 458.661 971.156 459.064C971.501 459.468 971.98 459.67 972.592 459.67C973.347 459.67 973.9 459.387 974.252 458.82C974.61 458.254 974.815 457.505 974.867 456.574L974.984 454.025C974.796 453.967 974.564 453.918 974.291 453.879C974.024 453.833 973.744 453.811 973.451 453.811C972.781 453.811 972.237 453.97 971.82 454.289C971.41 454.608 971.111 455.021 970.922 455.529C970.733 456.037 970.639 456.581 970.639 457.16ZM986.654 467.805C985.248 467.805 984.164 467.541 983.402 467.014C982.641 466.493 982.26 465.76 982.26 464.816C982.26 464.146 982.471 463.573 982.895 463.098C983.324 462.622 983.917 462.307 984.672 462.15C984.392 462.02 984.151 461.825 983.949 461.564C983.754 461.304 983.656 461.005 983.656 460.666C983.656 460.275 983.764 459.934 983.979 459.641C984.2 459.341 984.535 459.055 984.984 458.781C984.424 458.553 983.969 458.169 983.617 457.629C983.272 457.082 983.1 456.447 983.1 455.725C983.1 454.956 983.259 454.302 983.578 453.762C983.897 453.215 984.359 452.798 984.965 452.512C985.57 452.225 986.303 452.082 987.162 452.082C987.351 452.082 987.54 452.092 987.729 452.111C987.924 452.124 988.109 452.147 988.285 452.18C988.461 452.206 988.614 452.238 988.744 452.277H992.416V453.322L990.443 453.566C990.639 453.82 990.801 454.126 990.932 454.484C991.062 454.842 991.127 455.24 991.127 455.676C991.127 456.743 990.766 457.593 990.043 458.225C989.32 458.85 988.327 459.162 987.064 459.162C986.765 459.162 986.459 459.136 986.146 459.084C985.827 459.26 985.583 459.455 985.414 459.67C985.251 459.885 985.17 460.132 985.17 460.412C985.17 460.62 985.232 460.786 985.355 460.91C985.486 461.034 985.671 461.125 985.912 461.184C986.153 461.236 986.443 461.262 986.781 461.262H988.666C989.831 461.262 990.723 461.506 991.342 461.994C991.967 462.482 992.279 463.195 992.279 464.133C992.279 465.318 991.798 466.226 990.834 466.857C989.87 467.489 988.477 467.805 986.654 467.805ZM986.703 466.535C987.589 466.535 988.321 466.444 988.9 466.262C989.486 466.086 989.923 465.829 990.209 465.49C990.502 465.158 990.648 464.761 990.648 464.299C990.648 463.869 990.551 463.544 990.355 463.322C990.16 463.107 989.874 462.964 989.496 462.893C989.118 462.814 988.656 462.775 988.109 462.775H986.254C985.772 462.775 985.352 462.85 984.994 463C984.636 463.15 984.359 463.371 984.164 463.664C983.975 463.957 983.881 464.322 983.881 464.758C983.881 465.337 984.125 465.777 984.613 466.076C985.102 466.382 985.798 466.535 986.703 466.535ZM987.123 457.98C987.898 457.98 988.48 457.785 988.871 457.395C989.262 457.004 989.457 456.434 989.457 455.686C989.457 454.885 989.258 454.286 988.861 453.889C988.464 453.485 987.878 453.283 987.104 453.283C986.361 453.283 985.788 453.492 985.385 453.908C984.988 454.318 984.789 454.921 984.789 455.715C984.789 456.444 984.991 457.004 985.395 457.395C985.798 457.785 986.374 457.98 987.123 457.98ZM1006.15 452.102C1007.32 452.102 1008.21 452.411 1008.81 453.029C1009.41 453.641 1009.71 454.628 1009.71 455.988V463H1008.11V456.066C1008.11 455.201 1007.92 454.553 1007.54 454.123C1007.17 453.687 1006.62 453.469 1005.88 453.469C1004.85 453.469 1004.1 453.768 1003.63 454.367C1003.16 454.966 1002.92 455.848 1002.92 457.014V463H1001.31V456.066C1001.31 455.487 1001.23 455.005 1001.06 454.621C1000.9 454.237 1000.65 453.951 1000.32 453.762C999.991 453.566 999.577 453.469 999.076 453.469C998.367 453.469 997.797 453.615 997.367 453.908C996.938 454.201 996.625 454.637 996.43 455.217C996.241 455.79 996.146 456.496 996.146 457.336V463H994.525V452.297H995.834L996.078 453.811H996.166C996.381 453.439 996.651 453.127 996.977 452.873C997.302 452.619 997.667 452.427 998.07 452.297C998.474 452.167 998.904 452.102 999.359 452.102C1000.17 452.102 1000.85 452.255 1001.4 452.561C1001.95 452.86 1002.35 453.319 1002.6 453.938H1002.69C1003.04 453.319 1003.52 452.86 1004.13 452.561C1004.75 452.255 1005.42 452.102 1006.15 452.102ZM1017.04 452.121C1018.32 452.121 1019.27 452.408 1019.89 452.98C1020.51 453.553 1020.81 454.468 1020.81 455.725V463H1019.63L1019.32 461.418H1019.24C1018.94 461.809 1018.63 462.137 1018.3 462.404C1017.98 462.665 1017.6 462.863 1017.17 463C1016.75 463.13 1016.23 463.195 1015.61 463.195C1014.96 463.195 1014.38 463.081 1013.87 462.854C1013.37 462.626 1012.97 462.281 1012.68 461.818C1012.39 461.356 1012.25 460.77 1012.25 460.061C1012.25 458.993 1012.67 458.173 1013.52 457.6C1014.37 457.027 1015.65 456.714 1017.39 456.662L1019.23 456.584V455.93C1019.23 455.005 1019.03 454.357 1018.64 453.986C1018.24 453.615 1017.68 453.43 1016.96 453.43C1016.4 453.43 1015.86 453.511 1015.36 453.674C1014.85 453.837 1014.37 454.029 1013.91 454.25L1013.41 453.02C1013.89 452.772 1014.45 452.561 1015.07 452.385C1015.7 452.209 1016.35 452.121 1017.04 452.121ZM1019.21 457.727L1017.58 457.795C1016.25 457.847 1015.31 458.065 1014.76 458.449C1014.21 458.833 1013.94 459.377 1013.94 460.08C1013.94 460.692 1014.12 461.145 1014.5 461.438C1014.87 461.73 1015.36 461.877 1015.97 461.877C1016.92 461.877 1017.7 461.613 1018.3 461.086C1018.91 460.559 1019.21 459.768 1019.21 458.713V457.727ZM1025.78 452.297V463H1024.15V452.297H1025.78ZM1024.98 448.293C1025.25 448.293 1025.48 448.381 1025.67 448.557C1025.86 448.726 1025.96 448.993 1025.96 449.357C1025.96 449.715 1025.86 449.982 1025.67 450.158C1025.48 450.334 1025.25 450.422 1024.98 450.422C1024.7 450.422 1024.47 450.334 1024.28 450.158C1024.1 449.982 1024.01 449.715 1024.01 449.357C1024.01 448.993 1024.1 448.726 1024.28 448.557C1024.47 448.381 1024.7 448.293 1024.98 448.293ZM1030.84 463H1029.21V447.805H1030.84V463ZM1034.03 461.984C1034.03 461.529 1034.14 461.206 1034.36 461.018C1034.58 460.822 1034.85 460.725 1035.17 460.725C1035.5 460.725 1035.78 460.822 1036.01 461.018C1036.24 461.206 1036.35 461.529 1036.35 461.984C1036.35 462.434 1036.24 462.762 1036.01 462.971C1035.78 463.173 1035.5 463.273 1035.17 463.273C1034.85 463.273 1034.58 463.173 1034.36 462.971C1034.14 462.762 1034.03 462.434 1034.03 461.984ZM1043.81 463.195C1042.85 463.195 1042 462.997 1041.26 462.6C1040.53 462.202 1039.96 461.597 1039.54 460.783C1039.13 459.969 1038.93 458.944 1038.93 457.707C1038.93 456.411 1039.14 455.354 1039.57 454.533C1040.01 453.706 1040.61 453.094 1041.37 452.697C1042.13 452.3 1043 452.102 1043.97 452.102C1044.5 452.102 1045.02 452.157 1045.51 452.268C1046.01 452.372 1046.42 452.505 1046.74 452.668L1046.25 454.025C1045.93 453.895 1045.55 453.778 1045.12 453.674C1044.7 453.57 1044.3 453.518 1043.93 453.518C1043.19 453.518 1042.57 453.677 1042.07 453.996C1041.59 454.315 1041.22 454.784 1040.97 455.402C1040.73 456.021 1040.61 456.783 1040.61 457.688C1040.61 458.553 1040.73 459.292 1040.96 459.904C1041.2 460.516 1041.56 460.985 1042.03 461.311C1042.5 461.63 1043.09 461.789 1043.8 461.789C1044.37 461.789 1044.88 461.73 1045.34 461.613C1045.79 461.49 1046.21 461.346 1046.58 461.184V462.629C1046.22 462.811 1045.82 462.951 1045.38 463.049C1044.94 463.146 1044.42 463.195 1043.81 463.195ZM1058.34 457.629C1058.34 458.508 1058.23 459.292 1058 459.982C1057.77 460.673 1057.45 461.255 1057.02 461.73C1056.59 462.206 1056.07 462.57 1055.45 462.824C1054.85 463.072 1054.16 463.195 1053.39 463.195C1052.68 463.195 1052.02 463.072 1051.42 462.824C1050.83 462.57 1050.31 462.206 1049.88 461.73C1049.45 461.255 1049.11 460.673 1048.87 459.982C1048.64 459.292 1048.52 458.508 1048.52 457.629C1048.52 456.457 1048.72 455.461 1049.12 454.641C1049.51 453.814 1050.08 453.186 1050.81 452.756C1051.56 452.32 1052.44 452.102 1053.46 452.102C1054.44 452.102 1055.29 452.32 1056.02 452.756C1056.76 453.192 1057.32 453.824 1057.73 454.65C1058.14 455.471 1058.34 456.464 1058.34 457.629ZM1050.2 457.629C1050.2 458.488 1050.31 459.234 1050.54 459.865C1050.77 460.497 1051.12 460.985 1051.6 461.33C1052.07 461.675 1052.68 461.848 1053.43 461.848C1054.17 461.848 1054.78 461.675 1055.26 461.33C1055.74 460.985 1056.09 460.497 1056.32 459.865C1056.55 459.234 1056.66 458.488 1056.66 457.629C1056.66 456.776 1056.55 456.04 1056.32 455.422C1056.09 454.797 1055.74 454.315 1055.27 453.977C1054.79 453.638 1054.18 453.469 1053.42 453.469C1052.31 453.469 1051.49 453.837 1050.97 454.572C1050.46 455.308 1050.2 456.327 1050.2 457.629ZM1072.77 452.102C1073.95 452.102 1074.83 452.411 1075.43 453.029C1076.03 453.641 1076.33 454.628 1076.33 455.988V463H1074.73V456.066C1074.73 455.201 1074.54 454.553 1074.16 454.123C1073.79 453.687 1073.24 453.469 1072.5 453.469C1071.47 453.469 1070.72 453.768 1070.25 454.367C1069.78 454.966 1069.54 455.848 1069.54 457.014V463H1067.93V456.066C1067.93 455.487 1067.85 455.005 1067.68 454.621C1067.52 454.237 1067.27 453.951 1066.94 453.762C1066.61 453.566 1066.2 453.469 1065.7 453.469C1064.99 453.469 1064.42 453.615 1063.99 453.908C1063.56 454.201 1063.25 454.637 1063.05 455.217C1062.86 455.79 1062.77 456.496 1062.77 457.336V463H1061.15V452.297H1062.46L1062.7 453.811H1062.79C1063 453.439 1063.27 453.127 1063.6 452.873C1063.92 452.619 1064.29 452.427 1064.69 452.297C1065.1 452.167 1065.52 452.102 1065.98 452.102C1066.79 452.102 1067.47 452.255 1068.02 452.561C1068.57 452.86 1068.98 453.319 1069.22 453.938H1069.31C1069.66 453.319 1070.14 452.86 1070.76 452.561C1071.37 452.255 1072.04 452.102 1072.77 452.102Z" fill="#0E181E"/>
<path d="M818.695 464.221H852.246V464.709H818.695V464.221ZM863.238 464.221H968.785V464.709H863.238V464.221ZM976.777 464.221H981.777V464.709H976.777V464.221ZM992.77 464.221H1077.95V464.709H992.77V464.221Z" fill="#0E181E"/>
<a href="mailto:diegommrez12@gmail.com">
<rect fill="black" fill-opacity="0" x="5.19531" y="-0.118164" width="259.258" height="27.2363"/>
</a>
</g>
<rect x="71" y="107" width="1057" height="413" stroke="#312F2C" stroke-width="2"/>
<defs>
<clipPath id="clip0_7_6">
<rect x="70" y="106" width="1059" height="415" fill="white"/>
</clipPath>
</defs>
</svg>
