<svg width="1200" height="627" viewBox="0 0 1200 627" fill="none" xmlns="http://www.w3.org/2000/svg">
<rect width="1200" height="627" fill="#FEF0E4"/>
<g clip-path="url(#clip0_7_6)">
<rect x="70" y="106" width="1059" height="415" fill="#1A0C04"/>
<path d="M390.656 196.219C390.656 201.365 389.667 205.667 387.688 209.125C385.729 212.562 382.885 215.156 379.156 216.906C375.427 218.635 370.938 219.5 365.688 219.5H352.75V173.812H367.094C371.885 173.812 376.042 174.667 379.562 176.375C383.083 178.062 385.812 180.573 387.75 183.906C389.688 187.219 390.656 191.323 390.656 196.219ZM380.594 196.469C380.594 193.094 380.094 190.323 379.094 188.156C378.115 185.969 376.656 184.354 374.719 183.312C372.802 182.271 370.427 181.75 367.594 181.75H362.438V211.5H366.594C371.323 211.5 374.833 210.24 377.125 207.719C379.438 205.198 380.594 201.448 380.594 196.469ZM400.125 219.5V173.812H409.812V219.5H400.125ZM447.625 219.5H421.312V173.812H447.625V181.75H431V191.781H446.469V199.719H431V211.5H447.625V219.5ZM474.531 193.844H492.656V217.531C490.26 218.323 487.771 218.958 485.188 219.438C482.604 219.896 479.677 220.125 476.406 220.125C471.865 220.125 468.01 219.229 464.844 217.438C461.677 215.646 459.271 213 457.625 209.5C455.979 206 455.156 201.698 455.156 196.594C455.156 191.802 456.073 187.656 457.906 184.156C459.76 180.656 462.458 177.948 466 176.031C469.562 174.115 473.906 173.156 479.031 173.156C481.448 173.156 483.833 173.417 486.188 173.938C488.542 174.458 490.677 175.135 492.594 175.969L489.375 183.719C487.979 183.01 486.385 182.417 484.594 181.938C482.802 181.458 480.927 181.219 478.969 181.219C476.156 181.219 473.708 181.865 471.625 183.156C469.562 184.448 467.958 186.26 466.812 188.594C465.688 190.906 465.125 193.635 465.125 196.781C465.125 199.76 465.531 202.406 466.344 204.719C467.156 207.01 468.438 208.812 470.188 210.125C471.938 211.417 474.219 212.062 477.031 212.062C478.406 212.062 479.562 212 480.5 211.875C481.458 211.729 482.354 211.583 483.188 211.438V201.906H474.531V193.844ZM545.031 196.594C545.031 200.115 544.594 203.323 543.719 206.219C542.844 209.094 541.51 211.573 539.719 213.656C537.948 215.74 535.698 217.344 532.969 218.469C530.24 219.573 527.01 220.125 523.281 220.125C519.552 220.125 516.323 219.573 513.594 218.469C510.865 217.344 508.604 215.74 506.812 213.656C505.042 211.573 503.719 209.083 502.844 206.188C501.969 203.292 501.531 200.073 501.531 196.531C501.531 191.802 502.302 187.688 503.844 184.188C505.406 180.667 507.802 177.938 511.031 176C514.26 174.062 518.365 173.094 523.344 173.094C528.302 173.094 532.375 174.062 535.562 176C538.771 177.938 541.146 180.667 542.688 184.188C544.25 187.708 545.031 191.844 545.031 196.594ZM511.688 196.594C511.688 199.781 512.083 202.531 512.875 204.844C513.688 207.135 514.948 208.906 516.656 210.156C518.365 211.385 520.573 212 523.281 212C526.031 212 528.26 211.385 529.969 210.156C531.677 208.906 532.917 207.135 533.688 204.844C534.479 202.531 534.875 199.781 534.875 196.594C534.875 191.802 533.979 188.031 532.188 185.281C530.396 182.531 527.448 181.156 523.344 181.156C520.615 181.156 518.385 181.781 516.656 183.031C514.948 184.26 513.688 186.031 512.875 188.344C512.083 190.635 511.688 193.385 511.688 196.594ZM584.438 173.812C588.583 173.812 592 174.312 594.688 175.312C597.396 176.312 599.406 177.823 600.719 179.844C602.031 181.865 602.688 184.417 602.688 187.5C602.688 189.583 602.292 191.406 601.5 192.969C600.708 194.531 599.667 195.854 598.375 196.938C597.083 198.021 595.688 198.906 594.188 199.594L607.625 219.5H596.875L585.969 201.969H580.812V219.5H571.125V173.812H584.438ZM583.75 181.75H580.812V194.094H583.938C587.146 194.094 589.438 193.562 590.812 192.5C592.208 191.417 592.906 189.833 592.906 187.75C592.906 185.583 592.156 184.042 590.656 183.125C589.177 182.208 586.875 181.75 583.75 181.75ZM639.688 219.5H613.375V173.812H639.688V181.75H623.062V191.781H638.531V199.719H623.062V211.5H639.688V219.5ZM679.031 219.5H645.031V213.219L666.938 181.812H645.625V173.812H678.438V180.062L656.562 211.5H679.031V219.5ZM712.625 219.5H686.312V173.812H712.625V181.75H696V191.781H711.469V199.719H696V211.5H712.625V219.5ZM762.719 219.5H750.406L730.531 184.938H730.25C730.333 186.375 730.406 187.823 730.469 189.281C730.531 190.74 730.594 192.198 730.656 193.656C730.719 195.094 730.781 196.542 730.844 198V219.5H722.188V173.812H734.406L754.25 208.031H754.469C754.427 206.615 754.375 205.208 754.312 203.812C754.25 202.417 754.188 201.021 754.125 199.625C754.083 198.229 754.042 196.833 754 195.438V173.812H762.719V219.5ZM812.156 196.219C812.156 201.365 811.167 205.667 809.188 209.125C807.229 212.562 804.385 215.156 800.656 216.906C796.927 218.635 792.438 219.5 787.188 219.5H774.25V173.812H788.594C793.385 173.812 797.542 174.667 801.062 176.375C804.583 178.062 807.312 180.573 809.25 183.906C811.188 187.219 812.156 191.323 812.156 196.219ZM802.094 196.469C802.094 193.094 801.594 190.323 800.594 188.156C799.615 185.969 798.156 184.354 796.219 183.312C794.302 182.271 791.927 181.75 789.094 181.75H783.938V211.5H788.094C792.823 211.5 796.333 210.24 798.625 207.719C800.938 205.198 802.094 201.448 802.094 196.469ZM847.938 219.5H821.625V173.812H847.938V181.75H831.312V191.781H846.781V199.719H831.312V211.5H847.938V219.5Z" fill="#E8844A"/>
<path d="M404.039 287.859H397.641V310.5H393.75V287.859H389.203V285.984L393.75 284.695V282.984C393.75 280.828 394.07 279.078 394.711 277.734C395.352 276.375 396.281 275.375 397.5 274.734C398.719 274.094 400.203 273.773 401.953 273.773C402.938 273.773 403.836 273.859 404.648 274.031C405.477 274.203 406.203 274.398 406.828 274.617L405.82 277.688C405.289 277.516 404.688 277.359 404.016 277.219C403.359 277.062 402.688 276.984 402 276.984C400.516 276.984 399.414 277.469 398.695 278.438C397.992 279.391 397.641 280.891 397.641 282.938V284.812H404.039V287.859ZM429.984 284.812V310.5H426.797L426.234 306.891H426.023C425.492 307.781 424.805 308.531 423.961 309.141C423.117 309.75 422.164 310.203 421.102 310.5C420.055 310.812 418.938 310.969 417.75 310.969C415.719 310.969 414.016 310.641 412.641 309.984C411.266 309.328 410.227 308.312 409.523 306.938C408.836 305.562 408.492 303.797 408.492 301.641V284.812H412.43V301.359C412.43 303.5 412.914 305.102 413.883 306.164C414.852 307.211 416.328 307.734 418.312 307.734C420.219 307.734 421.734 307.375 422.859 306.656C424 305.938 424.82 304.883 425.32 303.492C425.82 302.086 426.07 300.367 426.07 298.336V284.812H429.984ZM442.125 310.5H438.211V274.031H442.125V310.5ZM454.266 310.5H450.352V274.031H454.266V310.5ZM479.109 303.469C479.109 305.109 478.695 306.492 477.867 307.617C477.055 308.727 475.883 309.562 474.352 310.125C472.836 310.688 471.023 310.969 468.914 310.969C467.117 310.969 465.562 310.828 464.25 310.547C462.938 310.266 461.789 309.867 460.805 309.352V305.766C461.852 306.281 463.102 306.75 464.555 307.172C466.008 307.594 467.492 307.805 469.008 307.805C471.227 307.805 472.836 307.445 473.836 306.727C474.836 306.008 475.336 305.031 475.336 303.797C475.336 303.094 475.133 302.477 474.727 301.945C474.336 301.398 473.672 300.875 472.734 300.375C471.797 299.859 470.5 299.297 468.844 298.688C467.203 298.062 465.781 297.445 464.578 296.836C463.391 296.211 462.469 295.453 461.812 294.562C461.172 293.672 460.852 292.516 460.852 291.094C460.852 288.922 461.727 287.258 463.477 286.102C465.242 284.93 467.555 284.344 470.414 284.344C471.961 284.344 473.406 284.5 474.75 284.812C476.109 285.109 477.375 285.516 478.547 286.031L477.234 289.148C476.172 288.695 475.039 288.312 473.836 288C472.633 287.688 471.406 287.531 470.156 287.531C468.359 287.531 466.977 287.828 466.008 288.422C465.055 289.016 464.578 289.828 464.578 290.859C464.578 291.656 464.797 292.312 465.234 292.828C465.688 293.344 466.406 293.828 467.391 294.281C468.375 294.734 469.672 295.266 471.281 295.875C472.891 296.469 474.281 297.086 475.453 297.727C476.625 298.352 477.523 299.117 478.148 300.023C478.789 300.914 479.109 302.062 479.109 303.469ZM493.664 307.781C494.305 307.781 494.961 307.727 495.633 307.617C496.305 307.508 496.852 307.375 497.273 307.219V310.242C496.82 310.445 496.188 310.617 495.375 310.758C494.578 310.898 493.797 310.969 493.031 310.969C491.672 310.969 490.438 310.734 489.328 310.266C488.219 309.781 487.328 308.969 486.656 307.828C486 306.688 485.672 305.109 485.672 303.094V287.859H482.016V285.961L485.695 284.438L487.242 278.859H489.586V284.812H497.109V287.859H489.586V302.977C489.586 304.586 489.953 305.789 490.688 306.586C491.438 307.383 492.43 307.781 493.664 307.781ZM512.086 284.391C515.148 284.391 517.422 285.078 518.906 286.453C520.391 287.828 521.133 290.023 521.133 293.039V310.5H518.297L517.547 306.703H517.359C516.641 307.641 515.891 308.43 515.109 309.07C514.328 309.695 513.422 310.172 512.391 310.5C511.375 310.812 510.125 310.969 508.641 310.969C507.078 310.969 505.688 310.695 504.469 310.148C503.266 309.602 502.312 308.773 501.609 307.664C500.922 306.555 500.578 305.148 500.578 303.445C500.578 300.883 501.594 298.914 503.625 297.539C505.656 296.164 508.75 295.414 512.906 295.289L517.336 295.102V293.531C517.336 291.312 516.859 289.758 515.906 288.867C514.953 287.977 513.609 287.531 511.875 287.531C510.531 287.531 509.25 287.727 508.031 288.117C506.812 288.508 505.656 288.969 504.562 289.5L503.367 286.547C504.523 285.953 505.852 285.445 507.352 285.023C508.852 284.602 510.43 284.391 512.086 284.391ZM517.289 297.844L513.375 298.008C510.172 298.133 507.914 298.656 506.602 299.578C505.289 300.5 504.633 301.805 504.633 303.492C504.633 304.961 505.078 306.047 505.969 306.75C506.859 307.453 508.039 307.805 509.508 307.805C511.789 307.805 513.656 307.172 515.109 305.906C516.562 304.641 517.289 302.742 517.289 300.211V297.844ZM539.438 310.969C537.125 310.969 535.086 310.492 533.32 309.539C531.555 308.586 530.18 307.133 529.195 305.18C528.211 303.227 527.719 300.766 527.719 297.797C527.719 294.688 528.234 292.148 529.266 290.18C530.312 288.195 531.75 286.727 533.578 285.773C535.406 284.82 537.484 284.344 539.812 284.344C541.094 284.344 542.328 284.477 543.516 284.742C544.719 284.992 545.703 285.312 546.469 285.703L545.297 288.961C544.516 288.648 543.609 288.367 542.578 288.117C541.562 287.867 540.609 287.742 539.719 287.742C537.938 287.742 536.453 288.125 535.266 288.891C534.094 289.656 533.211 290.781 532.617 292.266C532.039 293.75 531.75 295.578 531.75 297.75C531.75 299.828 532.031 301.602 532.594 303.07C533.172 304.539 534.023 305.664 535.148 306.445C536.289 307.211 537.711 307.594 539.414 307.594C540.773 307.594 542 307.453 543.094 307.172C544.188 306.875 545.18 306.531 546.07 306.141V309.609C545.211 310.047 544.25 310.383 543.188 310.617C542.141 310.852 540.891 310.969 539.438 310.969ZM556.031 274.031V292.969C556.031 293.594 556.008 294.359 555.961 295.266C555.914 296.156 555.875 296.945 555.844 297.633H556.008C556.336 297.227 556.812 296.625 557.438 295.828C558.078 295.031 558.617 294.391 559.055 293.906L567.586 284.812H572.156L561.82 295.781L572.906 310.5H568.219L559.148 298.336L556.031 301.195V310.5H552.164V274.031H556.031ZM598.992 310.969C595.742 310.969 593.164 309.859 591.258 307.641C589.367 305.422 588.422 302.125 588.422 297.75C588.422 293.328 589.391 289.992 591.328 287.742C593.266 285.477 595.844 284.344 599.062 284.344C600.422 284.344 601.609 284.523 602.625 284.883C603.641 285.242 604.516 285.727 605.25 286.336C605.984 286.93 606.602 287.609 607.102 288.375H607.383C607.32 287.891 607.258 287.227 607.195 286.383C607.133 285.539 607.102 284.852 607.102 284.32V274.031H610.992V310.5H607.852L607.266 306.844H607.102C606.617 307.609 606 308.305 605.25 308.93C604.516 309.555 603.633 310.055 602.602 310.43C601.586 310.789 600.383 310.969 598.992 310.969ZM599.602 307.734C602.352 307.734 604.297 306.953 605.438 305.391C606.578 303.828 607.148 301.508 607.148 298.43V297.727C607.148 294.461 606.602 291.953 605.508 290.203C604.43 288.453 602.461 287.578 599.602 287.578C597.211 287.578 595.422 288.5 594.234 290.344C593.047 292.172 592.453 294.672 592.453 297.844C592.453 301 593.039 303.438 594.211 305.156C595.398 306.875 597.195 307.734 599.602 307.734ZM629.133 284.344C631.32 284.344 633.195 284.828 634.758 285.797C636.32 286.766 637.516 288.125 638.344 289.875C639.172 291.609 639.586 293.641 639.586 295.969V298.383H621.844C621.891 301.398 622.641 303.695 624.094 305.273C625.547 306.852 627.594 307.641 630.234 307.641C631.859 307.641 633.297 307.492 634.547 307.195C635.797 306.898 637.094 306.461 638.438 305.883V309.305C637.141 309.883 635.852 310.305 634.57 310.57C633.305 310.836 631.805 310.969 630.07 310.969C627.602 310.969 625.445 310.469 623.602 309.469C621.773 308.453 620.352 306.969 619.336 305.016C618.32 303.062 617.812 300.672 617.812 297.844C617.812 295.078 618.273 292.688 619.195 290.672C620.133 288.641 621.445 287.078 623.133 285.984C624.836 284.891 626.836 284.344 629.133 284.344ZM629.086 287.531C627.008 287.531 625.352 288.211 624.117 289.57C622.883 290.93 622.148 292.828 621.914 295.266H635.508C635.492 293.734 635.25 292.391 634.781 291.234C634.328 290.062 633.633 289.156 632.695 288.516C631.758 287.859 630.555 287.531 629.086 287.531ZM651.844 310.5L642.094 284.812H646.266L651.914 300.352C652.305 301.414 652.703 302.586 653.109 303.867C653.516 305.148 653.797 306.18 653.953 306.961H654.117C654.305 306.18 654.617 305.148 655.055 303.867C655.492 302.57 655.891 301.398 656.25 300.352L661.898 284.812H666.07L656.297 310.5H651.844ZM680.086 284.344C682.273 284.344 684.148 284.828 685.711 285.797C687.273 286.766 688.469 288.125 689.297 289.875C690.125 291.609 690.539 293.641 690.539 295.969V298.383H672.797C672.844 301.398 673.594 303.695 675.047 305.273C676.5 306.852 678.547 307.641 681.188 307.641C682.812 307.641 684.25 307.492 685.5 307.195C686.75 306.898 688.047 306.461 689.391 305.883V309.305C688.094 309.883 686.805 310.305 685.523 310.57C684.258 310.836 682.758 310.969 681.023 310.969C678.555 310.969 676.398 310.469 674.555 309.469C672.727 308.453 671.305 306.969 670.289 305.016C669.273 303.062 668.766 300.672 668.766 297.844C668.766 295.078 669.227 292.688 670.148 290.672C671.086 288.641 672.398 287.078 674.086 285.984C675.789 284.891 677.789 284.344 680.086 284.344ZM680.039 287.531C677.961 287.531 676.305 288.211 675.07 289.57C673.836 290.93 673.102 292.828 672.867 295.266H686.461C686.445 293.734 686.203 292.391 685.734 291.234C685.281 290.062 684.586 289.156 683.648 288.516C682.711 287.859 681.508 287.531 680.039 287.531ZM701.062 310.5H697.148V274.031H701.062V310.5ZM731.438 297.609C731.438 299.719 731.164 301.602 730.617 303.258C730.07 304.914 729.281 306.312 728.25 307.453C727.219 308.594 725.969 309.469 724.5 310.078C723.047 310.672 721.398 310.969 719.555 310.969C717.836 310.969 716.258 310.672 714.82 310.078C713.398 309.469 712.164 308.594 711.117 307.453C710.086 306.312 709.281 304.914 708.703 303.258C708.141 301.602 707.859 299.719 707.859 297.609C707.859 294.797 708.336 292.406 709.289 290.438C710.242 288.453 711.602 286.945 713.367 285.914C715.148 284.867 717.266 284.344 719.719 284.344C722.062 284.344 724.109 284.867 725.859 285.914C727.625 286.961 728.992 288.477 729.961 290.461C730.945 292.43 731.438 294.812 731.438 297.609ZM711.891 297.609C711.891 299.672 712.164 301.461 712.711 302.977C713.258 304.492 714.102 305.664 715.242 306.492C716.383 307.32 717.852 307.734 719.648 307.734C721.43 307.734 722.891 307.32 724.031 306.492C725.188 305.664 726.039 304.492 726.586 302.977C727.133 301.461 727.406 299.672 727.406 297.609C727.406 295.562 727.133 293.797 726.586 292.312C726.039 290.812 725.195 289.656 724.055 288.844C722.914 288.031 721.438 287.625 719.625 287.625C716.953 287.625 714.992 288.508 713.742 290.273C712.508 292.039 711.891 294.484 711.891 297.609ZM750.234 284.344C753.438 284.344 755.992 285.445 757.898 287.648C759.805 289.852 760.758 293.164 760.758 297.586C760.758 300.508 760.32 302.961 759.445 304.945C758.57 306.93 757.336 308.43 755.742 309.445C754.164 310.461 752.297 310.969 750.141 310.969C748.781 310.969 747.586 310.789 746.555 310.43C745.523 310.07 744.641 309.586 743.906 308.977C743.172 308.367 742.562 307.703 742.078 306.984H741.797C741.844 307.594 741.898 308.328 741.961 309.188C742.039 310.047 742.078 310.797 742.078 311.438V321.984H738.164V284.812H741.375L741.891 288.609H742.078C742.578 287.828 743.188 287.117 743.906 286.477C744.625 285.82 745.5 285.305 746.531 284.93C747.578 284.539 748.812 284.344 750.234 284.344ZM749.555 287.625C747.773 287.625 746.336 287.969 745.242 288.656C744.164 289.344 743.375 290.375 742.875 291.75C742.375 293.109 742.109 294.82 742.078 296.883V297.633C742.078 299.805 742.312 301.641 742.781 303.141C743.266 304.641 744.055 305.781 745.148 306.562C746.258 307.344 747.742 307.734 749.602 307.734C751.195 307.734 752.523 307.305 753.586 306.445C754.648 305.586 755.438 304.391 755.953 302.859C756.484 301.312 756.75 299.539 756.75 297.539C756.75 294.508 756.156 292.102 754.969 290.32C753.797 288.523 751.992 287.625 749.555 287.625ZM777.445 284.344C779.633 284.344 781.508 284.828 783.07 285.797C784.633 286.766 785.828 288.125 786.656 289.875C787.484 291.609 787.898 293.641 787.898 295.969V298.383H770.156C770.203 301.398 770.953 303.695 772.406 305.273C773.859 306.852 775.906 307.641 778.547 307.641C780.172 307.641 781.609 307.492 782.859 307.195C784.109 306.898 785.406 306.461 786.75 305.883V309.305C785.453 309.883 784.164 310.305 782.883 310.57C781.617 310.836 780.117 310.969 778.383 310.969C775.914 310.969 773.758 310.469 771.914 309.469C770.086 308.453 768.664 306.969 767.648 305.016C766.633 303.062 766.125 300.672 766.125 297.844C766.125 295.078 766.586 292.688 767.508 290.672C768.445 288.641 769.758 287.078 771.445 285.984C773.148 284.891 775.148 284.344 777.445 284.344ZM777.398 287.531C775.32 287.531 773.664 288.211 772.43 289.57C771.195 290.93 770.461 292.828 770.227 295.266H783.82C783.805 293.734 783.562 292.391 783.094 291.234C782.641 290.062 781.945 289.156 781.008 288.516C780.07 287.859 778.867 287.531 777.398 287.531ZM806.18 284.344C806.695 284.344 807.234 284.375 807.797 284.438C808.359 284.484 808.859 284.555 809.297 284.648L808.805 288.258C808.383 288.148 807.914 288.062 807.398 288C806.883 287.938 806.398 287.906 805.945 287.906C804.914 287.906 803.938 288.117 803.016 288.539C802.109 288.945 801.312 289.539 800.625 290.32C799.938 291.086 799.398 292.016 799.008 293.109C798.617 294.188 798.422 295.391 798.422 296.719V310.5H794.508V284.812H797.742L798.164 289.547H798.328C798.859 288.594 799.5 287.727 800.25 286.945C801 286.148 801.867 285.516 802.852 285.047C803.852 284.578 804.961 284.344 806.18 284.344Z" fill="#7A4A28"/>
<path d="M296.333 362C298.101 362 299.797 362.702 301.047 363.953C302.298 365.203 303 366.899 303 368.667V415.333C303 417.101 302.298 418.797 301.047 420.047C299.797 421.298 298.101 422 296.333 422H249.667C247.899 422 246.203 421.298 244.953 420.047C243.702 418.797 243 417.101 243 415.333V368.667C243 366.899 243.702 365.203 244.953 363.953C246.203 362.702 247.899 362 249.667 362H296.333ZM294.667 413.667V396C294.667 393.118 293.522 390.354 291.484 388.316C289.446 386.278 286.682 385.133 283.8 385.133C280.967 385.133 277.667 386.867 276.067 389.467V385.767H266.767V413.667H276.067V397.233C276.067 394.667 278.133 392.567 280.7 392.567C281.938 392.567 283.125 393.058 284 393.934C284.875 394.809 285.367 395.996 285.367 397.233V413.667H294.667ZM255.933 380.533C257.419 380.533 258.843 379.943 259.893 378.893C260.943 377.843 261.533 376.419 261.533 374.933C261.533 371.833 259.033 369.3 255.933 369.3C254.439 369.3 253.006 369.894 251.95 370.95C250.894 372.006 250.3 373.439 250.3 374.933C250.3 378.033 252.833 380.533 255.933 380.533ZM260.567 413.667V385.767H251.333V413.667H260.567Z" fill="#FEF0E4"/>
<path d="M156.23 463H154.6V447.805H156.23V463ZM161.279 452.297V463H159.658V452.297H161.279ZM160.488 448.293C160.755 448.293 160.983 448.381 161.172 448.557C161.367 448.726 161.465 448.993 161.465 449.357C161.465 449.715 161.367 449.982 161.172 450.158C160.983 450.334 160.755 450.422 160.488 450.422C160.208 450.422 159.974 450.334 159.785 450.158C159.603 449.982 159.512 449.715 159.512 449.357C159.512 448.993 159.603 448.726 159.785 448.557C159.974 448.381 160.208 448.293 160.488 448.293ZM169.785 452.102C171.055 452.102 172.015 452.414 172.666 453.039C173.317 453.658 173.643 454.654 173.643 456.027V463H172.041V456.135C172.041 455.243 171.836 454.576 171.426 454.133C171.022 453.69 170.4 453.469 169.561 453.469C168.376 453.469 167.542 453.804 167.061 454.475C166.579 455.145 166.338 456.118 166.338 457.395V463H164.717V452.297H166.025L166.27 453.84H166.357C166.585 453.462 166.875 453.146 167.227 452.893C167.578 452.632 167.972 452.437 168.408 452.307C168.844 452.17 169.303 452.102 169.785 452.102ZM178.594 447.805V455.695C178.594 455.956 178.584 456.275 178.564 456.652C178.545 457.023 178.529 457.352 178.516 457.639H178.584C178.721 457.469 178.919 457.219 179.18 456.887C179.447 456.555 179.671 456.288 179.854 456.086L183.408 452.297H185.312L181.006 456.867L185.625 463H183.672L179.893 457.932L178.594 459.123V463H176.982V447.805H178.594ZM191.611 452.102C192.523 452.102 193.304 452.303 193.955 452.707C194.606 453.111 195.104 453.677 195.449 454.406C195.794 455.129 195.967 455.975 195.967 456.945V457.951H188.574C188.594 459.208 188.906 460.165 189.512 460.822C190.117 461.48 190.97 461.809 192.07 461.809C192.747 461.809 193.346 461.747 193.867 461.623C194.388 461.499 194.928 461.317 195.488 461.076V462.502C194.948 462.743 194.411 462.919 193.877 463.029C193.35 463.14 192.725 463.195 192.002 463.195C190.973 463.195 190.075 462.987 189.307 462.57C188.545 462.147 187.952 461.529 187.529 460.715C187.106 459.901 186.895 458.905 186.895 457.727C186.895 456.574 187.087 455.578 187.471 454.738C187.861 453.892 188.408 453.241 189.111 452.785C189.821 452.329 190.654 452.102 191.611 452.102ZM191.592 453.43C190.726 453.43 190.036 453.713 189.521 454.279C189.007 454.846 188.701 455.637 188.604 456.652H194.268C194.261 456.014 194.16 455.454 193.965 454.973C193.776 454.484 193.486 454.107 193.096 453.84C192.705 453.566 192.204 453.43 191.592 453.43ZM202.529 463.195C201.175 463.195 200.101 462.733 199.307 461.809C198.519 460.884 198.125 459.51 198.125 457.688C198.125 455.845 198.529 454.455 199.336 453.518C200.143 452.574 201.217 452.102 202.559 452.102C203.125 452.102 203.62 452.176 204.043 452.326C204.466 452.476 204.831 452.678 205.137 452.932C205.443 453.179 205.7 453.462 205.908 453.781H206.025C205.999 453.579 205.973 453.303 205.947 452.951C205.921 452.6 205.908 452.313 205.908 452.092V447.805H207.529V463H206.221L205.977 461.477H205.908C205.706 461.796 205.449 462.085 205.137 462.346C204.831 462.606 204.463 462.814 204.033 462.971C203.61 463.12 203.109 463.195 202.529 463.195ZM202.783 461.848C203.929 461.848 204.74 461.522 205.215 460.871C205.69 460.22 205.928 459.253 205.928 457.971V457.678C205.928 456.317 205.7 455.272 205.244 454.543C204.795 453.814 203.975 453.449 202.783 453.449C201.787 453.449 201.042 453.833 200.547 454.602C200.052 455.363 199.805 456.405 199.805 457.727C199.805 459.042 200.049 460.057 200.537 460.773C201.032 461.49 201.781 461.848 202.783 461.848ZM212.588 452.297V463H210.967V452.297H212.588ZM211.797 448.293C212.064 448.293 212.292 448.381 212.48 448.557C212.676 448.726 212.773 448.993 212.773 449.357C212.773 449.715 212.676 449.982 212.48 450.158C212.292 450.334 212.064 450.422 211.797 450.422C211.517 450.422 211.283 450.334 211.094 450.158C210.911 449.982 210.82 449.715 210.82 449.357C210.82 448.993 210.911 448.726 211.094 448.557C211.283 448.381 211.517 448.293 211.797 448.293ZM221.094 452.102C222.363 452.102 223.324 452.414 223.975 453.039C224.626 453.658 224.951 454.654 224.951 456.027V463H223.35V456.135C223.35 455.243 223.145 454.576 222.734 454.133C222.331 453.69 221.709 453.469 220.869 453.469C219.684 453.469 218.851 453.804 218.369 454.475C217.887 455.145 217.646 456.118 217.646 457.395V463H216.025V452.297H217.334L217.578 453.84H217.666C217.894 453.462 218.184 453.146 218.535 452.893C218.887 452.632 219.281 452.437 219.717 452.307C220.153 452.17 220.612 452.102 221.094 452.102ZM228.047 461.984C228.047 461.529 228.158 461.206 228.379 461.018C228.6 460.822 228.87 460.725 229.189 460.725C229.521 460.725 229.801 460.822 230.029 461.018C230.257 461.206 230.371 461.529 230.371 461.984C230.371 462.434 230.257 462.762 230.029 462.971C229.801 463.173 229.521 463.273 229.189 463.273C228.87 463.273 228.6 463.173 228.379 462.971C228.158 462.762 228.047 462.434 228.047 461.984ZM237.832 463.195C236.868 463.195 236.019 462.997 235.283 462.6C234.548 462.202 233.975 461.597 233.564 460.783C233.154 459.969 232.949 458.944 232.949 457.707C232.949 456.411 233.164 455.354 233.594 454.533C234.03 453.706 234.629 453.094 235.391 452.697C236.152 452.3 237.018 452.102 237.988 452.102C238.522 452.102 239.036 452.157 239.531 452.268C240.033 452.372 240.443 452.505 240.762 452.668L240.273 454.025C239.948 453.895 239.57 453.778 239.141 453.674C238.717 453.57 238.32 453.518 237.949 453.518C237.207 453.518 236.589 453.677 236.094 453.996C235.605 454.315 235.238 454.784 234.99 455.402C234.749 456.021 234.629 456.783 234.629 457.688C234.629 458.553 234.746 459.292 234.98 459.904C235.221 460.516 235.576 460.985 236.045 461.311C236.52 461.63 237.113 461.789 237.822 461.789C238.389 461.789 238.9 461.73 239.355 461.613C239.811 461.49 240.225 461.346 240.596 461.184V462.629C240.238 462.811 239.837 462.951 239.395 463.049C238.958 463.146 238.438 463.195 237.832 463.195ZM252.363 457.629C252.363 458.508 252.249 459.292 252.021 459.982C251.794 460.673 251.465 461.255 251.035 461.73C250.605 462.206 250.085 462.57 249.473 462.824C248.867 463.072 248.18 463.195 247.412 463.195C246.696 463.195 246.038 463.072 245.439 462.824C244.847 462.57 244.333 462.206 243.896 461.73C243.467 461.255 243.132 460.673 242.891 459.982C242.656 459.292 242.539 458.508 242.539 457.629C242.539 456.457 242.738 455.461 243.135 454.641C243.532 453.814 244.098 453.186 244.834 452.756C245.576 452.32 246.458 452.102 247.48 452.102C248.457 452.102 249.31 452.32 250.039 452.756C250.775 453.192 251.344 453.824 251.748 454.65C252.158 455.471 252.363 456.464 252.363 457.629ZM244.219 457.629C244.219 458.488 244.333 459.234 244.561 459.865C244.788 460.497 245.14 460.985 245.615 461.33C246.09 461.675 246.702 461.848 247.451 461.848C248.193 461.848 248.802 461.675 249.277 461.33C249.759 460.985 250.114 460.497 250.342 459.865C250.57 459.234 250.684 458.488 250.684 457.629C250.684 456.776 250.57 456.04 250.342 455.422C250.114 454.797 249.762 454.315 249.287 453.977C248.812 453.638 248.197 453.469 247.441 453.469C246.328 453.469 245.511 453.837 244.99 454.572C244.476 455.308 244.219 456.327 244.219 457.629ZM266.787 452.102C267.965 452.102 268.854 452.411 269.453 453.029C270.052 453.641 270.352 454.628 270.352 455.988V463H268.75V456.066C268.75 455.201 268.561 454.553 268.184 454.123C267.812 453.687 267.259 453.469 266.523 453.469C265.488 453.469 264.736 453.768 264.268 454.367C263.799 454.966 263.564 455.848 263.564 457.014V463H261.953V456.066C261.953 455.487 261.868 455.005 261.699 454.621C261.536 454.237 261.289 453.951 260.957 453.762C260.632 453.566 260.218 453.469 259.717 453.469C259.007 453.469 258.438 453.615 258.008 453.908C257.578 454.201 257.266 454.637 257.07 455.217C256.882 455.79 256.787 456.496 256.787 457.336V463H255.166V452.297H256.475L256.719 453.811H256.807C257.021 453.439 257.292 453.127 257.617 452.873C257.943 452.619 258.307 452.427 258.711 452.297C259.115 452.167 259.544 452.102 260 452.102C260.814 452.102 261.494 452.255 262.041 452.561C262.594 452.86 262.995 453.319 263.242 453.938H263.33C263.682 453.319 264.163 452.86 264.775 452.561C265.387 452.255 266.058 452.102 266.787 452.102ZM279.092 448.723L273.779 463H272.178L277.5 448.723H279.092ZM282.646 452.297V463H281.025V452.297H282.646ZM281.855 448.293C282.122 448.293 282.35 448.381 282.539 448.557C282.734 448.726 282.832 448.993 282.832 449.357C282.832 449.715 282.734 449.982 282.539 450.158C282.35 450.334 282.122 450.422 281.855 450.422C281.576 450.422 281.341 450.334 281.152 450.158C280.97 449.982 280.879 449.715 280.879 449.357C280.879 448.993 280.97 448.726 281.152 448.557C281.341 448.381 281.576 448.293 281.855 448.293ZM291.152 452.102C292.422 452.102 293.382 452.414 294.033 453.039C294.684 453.658 295.01 454.654 295.01 456.027V463H293.408V456.135C293.408 455.243 293.203 454.576 292.793 454.133C292.389 453.69 291.768 453.469 290.928 453.469C289.743 453.469 288.91 453.804 288.428 454.475C287.946 455.145 287.705 456.118 287.705 457.395V463H286.084V452.297H287.393L287.637 453.84H287.725C287.952 453.462 288.242 453.146 288.594 452.893C288.945 452.632 289.339 452.437 289.775 452.307C290.212 452.17 290.671 452.102 291.152 452.102ZM303.76 448.723L298.447 463H296.846L302.168 448.723H303.76ZM309.502 463.195C308.148 463.195 307.074 462.733 306.279 461.809C305.492 460.884 305.098 459.51 305.098 457.688C305.098 455.845 305.501 454.455 306.309 453.518C307.116 452.574 308.19 452.102 309.531 452.102C310.098 452.102 310.592 452.176 311.016 452.326C311.439 452.476 311.803 452.678 312.109 452.932C312.415 453.179 312.673 453.462 312.881 453.781H312.998C312.972 453.579 312.946 453.303 312.92 452.951C312.894 452.6 312.881 452.313 312.881 452.092V447.805H314.502V463H313.193L312.949 461.477H312.881C312.679 461.796 312.422 462.085 312.109 462.346C311.803 462.606 311.436 462.814 311.006 462.971C310.583 463.12 310.081 463.195 309.502 463.195ZM309.756 461.848C310.902 461.848 311.712 461.522 312.188 460.871C312.663 460.22 312.9 459.253 312.9 457.971V457.678C312.9 456.317 312.673 455.272 312.217 454.543C311.768 453.814 310.947 453.449 309.756 453.449C308.76 453.449 308.014 453.833 307.52 454.602C307.025 455.363 306.777 456.405 306.777 457.727C306.777 459.042 307.021 460.057 307.51 460.773C308.005 461.49 308.753 461.848 309.756 461.848ZM319.561 452.297V463H317.939V452.297H319.561ZM318.77 448.293C319.036 448.293 319.264 448.381 319.453 448.557C319.648 448.726 319.746 448.993 319.746 449.357C319.746 449.715 319.648 449.982 319.453 450.158C319.264 450.334 319.036 450.422 318.77 450.422C318.49 450.422 318.255 450.334 318.066 450.158C317.884 449.982 317.793 449.715 317.793 449.357C317.793 448.993 317.884 448.726 318.066 448.557C318.255 448.381 318.49 448.293 318.77 448.293ZM327.119 452.102C328.031 452.102 328.812 452.303 329.463 452.707C330.114 453.111 330.612 453.677 330.957 454.406C331.302 455.129 331.475 455.975 331.475 456.945V457.951H324.082C324.102 459.208 324.414 460.165 325.02 460.822C325.625 461.48 326.478 461.809 327.578 461.809C328.255 461.809 328.854 461.747 329.375 461.623C329.896 461.499 330.436 461.317 330.996 461.076V462.502C330.456 462.743 329.919 462.919 329.385 463.029C328.857 463.14 328.232 463.195 327.51 463.195C326.481 463.195 325.583 462.987 324.814 462.57C324.053 462.147 323.46 461.529 323.037 460.715C322.614 459.901 322.402 458.905 322.402 457.727C322.402 456.574 322.594 455.578 322.979 454.738C323.369 453.892 323.916 453.241 324.619 452.785C325.329 452.329 326.162 452.102 327.119 452.102ZM327.1 453.43C326.234 453.43 325.544 453.713 325.029 454.279C324.515 454.846 324.209 455.637 324.111 456.652H329.775C329.769 456.014 329.668 455.454 329.473 454.973C329.284 454.484 328.994 454.107 328.604 453.84C328.213 453.566 327.712 453.43 327.1 453.43ZM337.217 467.805C335.811 467.805 334.727 467.541 333.965 467.014C333.203 466.493 332.822 465.76 332.822 464.816C332.822 464.146 333.034 463.573 333.457 463.098C333.887 462.622 334.479 462.307 335.234 462.15C334.954 462.02 334.714 461.825 334.512 461.564C334.316 461.304 334.219 461.005 334.219 460.666C334.219 460.275 334.326 459.934 334.541 459.641C334.762 459.341 335.098 459.055 335.547 458.781C334.987 458.553 334.531 458.169 334.18 457.629C333.835 457.082 333.662 456.447 333.662 455.725C333.662 454.956 333.822 454.302 334.141 453.762C334.46 453.215 334.922 452.798 335.527 452.512C336.133 452.225 336.865 452.082 337.725 452.082C337.913 452.082 338.102 452.092 338.291 452.111C338.486 452.124 338.672 452.147 338.848 452.18C339.023 452.206 339.176 452.238 339.307 452.277H342.979V453.322L341.006 453.566C341.201 453.82 341.364 454.126 341.494 454.484C341.624 454.842 341.689 455.24 341.689 455.676C341.689 456.743 341.328 457.593 340.605 458.225C339.883 458.85 338.89 459.162 337.627 459.162C337.327 459.162 337.021 459.136 336.709 459.084C336.39 459.26 336.146 459.455 335.977 459.67C335.814 459.885 335.732 460.132 335.732 460.412C335.732 460.62 335.794 460.786 335.918 460.91C336.048 461.034 336.234 461.125 336.475 461.184C336.715 461.236 337.005 461.262 337.344 461.262H339.229C340.394 461.262 341.286 461.506 341.904 461.994C342.529 462.482 342.842 463.195 342.842 464.133C342.842 465.318 342.36 466.226 341.396 466.857C340.433 467.489 339.04 467.805 337.217 467.805ZM337.266 466.535C338.151 466.535 338.883 466.444 339.463 466.262C340.049 466.086 340.485 465.829 340.771 465.49C341.064 465.158 341.211 464.761 341.211 464.299C341.211 463.869 341.113 463.544 340.918 463.322C340.723 463.107 340.436 462.964 340.059 462.893C339.681 462.814 339.219 462.775 338.672 462.775H336.816C336.335 462.775 335.915 462.85 335.557 463C335.199 463.15 334.922 463.371 334.727 463.664C334.538 463.957 334.443 464.322 334.443 464.758C334.443 465.337 334.688 465.777 335.176 466.076C335.664 466.382 336.361 466.535 337.266 466.535ZM337.686 457.98C338.46 457.98 339.043 457.785 339.434 457.395C339.824 457.004 340.02 456.434 340.02 455.686C340.02 454.885 339.821 454.286 339.424 453.889C339.027 453.485 338.441 453.283 337.666 453.283C336.924 453.283 336.351 453.492 335.947 453.908C335.55 454.318 335.352 454.921 335.352 455.715C335.352 456.444 335.553 457.004 335.957 457.395C336.361 457.785 336.937 457.98 337.686 457.98ZM354.316 457.629C354.316 458.508 354.202 459.292 353.975 459.982C353.747 460.673 353.418 461.255 352.988 461.73C352.559 462.206 352.038 462.57 351.426 462.824C350.82 463.072 350.133 463.195 349.365 463.195C348.649 463.195 347.992 463.072 347.393 462.824C346.8 462.57 346.286 462.206 345.85 461.73C345.42 461.255 345.085 460.673 344.844 459.982C344.609 459.292 344.492 458.508 344.492 457.629C344.492 456.457 344.691 455.461 345.088 454.641C345.485 453.814 346.051 453.186 346.787 452.756C347.529 452.32 348.411 452.102 349.434 452.102C350.41 452.102 351.263 452.32 351.992 452.756C352.728 453.192 353.298 453.824 353.701 454.65C354.111 455.471 354.316 456.464 354.316 457.629ZM346.172 457.629C346.172 458.488 346.286 459.234 346.514 459.865C346.742 460.497 347.093 460.985 347.568 461.33C348.044 461.675 348.656 461.848 349.404 461.848C350.146 461.848 350.755 461.675 351.23 461.33C351.712 460.985 352.067 460.497 352.295 459.865C352.523 459.234 352.637 458.488 352.637 457.629C352.637 456.776 352.523 456.04 352.295 455.422C352.067 454.797 351.715 454.315 351.24 453.977C350.765 453.638 350.15 453.469 349.395 453.469C348.281 453.469 347.464 453.837 346.943 454.572C346.429 455.308 346.172 456.327 346.172 457.629ZM361.982 452.102C362.197 452.102 362.422 452.115 362.656 452.141C362.891 452.16 363.099 452.189 363.281 452.229L363.076 453.732C362.9 453.687 362.705 453.651 362.49 453.625C362.275 453.599 362.074 453.586 361.885 453.586C361.455 453.586 361.048 453.674 360.664 453.85C360.286 454.019 359.954 454.266 359.668 454.592C359.382 454.911 359.157 455.298 358.994 455.754C358.831 456.203 358.75 456.704 358.75 457.258V463H357.119V452.297H358.467L358.643 454.27H358.711C358.932 453.872 359.199 453.511 359.512 453.186C359.824 452.854 360.186 452.59 360.596 452.395C361.012 452.199 361.475 452.102 361.982 452.102ZM369.424 452.102C370.335 452.102 371.117 452.303 371.768 452.707C372.419 453.111 372.917 453.677 373.262 454.406C373.607 455.129 373.779 455.975 373.779 456.945V457.951H366.387C366.406 459.208 366.719 460.165 367.324 460.822C367.93 461.48 368.783 461.809 369.883 461.809C370.56 461.809 371.159 461.747 371.68 461.623C372.201 461.499 372.741 461.317 373.301 461.076V462.502C372.76 462.743 372.223 462.919 371.689 463.029C371.162 463.14 370.537 463.195 369.814 463.195C368.786 463.195 367.887 462.987 367.119 462.57C366.357 462.147 365.765 461.529 365.342 460.715C364.919 459.901 364.707 458.905 364.707 457.727C364.707 456.574 364.899 455.578 365.283 454.738C365.674 453.892 366.221 453.241 366.924 452.785C367.633 452.329 368.467 452.102 369.424 452.102ZM369.404 453.43C368.538 453.43 367.848 453.713 367.334 454.279C366.82 454.846 366.514 455.637 366.416 456.652H372.08C372.074 456.014 371.973 455.454 371.777 454.973C371.589 454.484 371.299 454.107 370.908 453.84C370.518 453.566 370.016 453.43 369.404 453.43ZM383.408 463H375.605V461.926L381.475 453.566H375.977V452.297H383.281V453.498L377.49 461.74H383.408V463ZM397.529 452.102C398.708 452.102 399.596 452.411 400.195 453.029C400.794 453.641 401.094 454.628 401.094 455.988V463H399.492V456.066C399.492 455.201 399.303 454.553 398.926 454.123C398.555 453.687 398.001 453.469 397.266 453.469C396.23 453.469 395.479 453.768 395.01 454.367C394.541 454.966 394.307 455.848 394.307 457.014V463H392.695V456.066C392.695 455.487 392.611 455.005 392.441 454.621C392.279 454.237 392.031 453.951 391.699 453.762C391.374 453.566 390.96 453.469 390.459 453.469C389.749 453.469 389.18 453.615 388.75 453.908C388.32 454.201 388.008 454.637 387.812 455.217C387.624 455.79 387.529 456.496 387.529 457.336V463H385.908V452.297H387.217L387.461 453.811H387.549C387.764 453.439 388.034 453.127 388.359 452.873C388.685 452.619 389.049 452.427 389.453 452.297C389.857 452.167 390.286 452.102 390.742 452.102C391.556 452.102 392.236 452.255 392.783 452.561C393.337 452.86 393.737 453.319 393.984 453.938H394.072C394.424 453.319 394.906 452.86 395.518 452.561C396.13 452.255 396.8 452.102 397.529 452.102Z" fill="#FEF0E4"/>
<path d="M147.695 464.221H332.34V464.709H147.695V464.221ZM343.332 464.221H402.715V464.709H343.332V464.221Z" fill="#FEF0E4"/>
<a href="https://www.linkedin.com/in/diegorezm">
<rect fill="black" fill-opacity="0" x="5.19531" y="-0.118164" width="255.02" height="27.2363"/>
</a>
<path d="M619.5 358.667C615.122 358.667 610.788 359.529 606.744 361.204C602.7 362.879 599.025 365.334 595.93 368.43C589.678 374.681 586.167 383.159 586.167 392C586.167 406.733 595.733 419.233 608.967 423.667C610.633 423.933 611.167 422.9 611.167 422V416.367C601.933 418.367 599.967 411.9 599.967 411.9C598.433 408.033 596.267 407 596.267 407C593.233 404.933 596.5 405 596.5 405C599.833 405.233 601.6 408.433 601.6 408.433C604.5 413.5 609.4 412 611.3 411.2C611.6 409.033 612.467 407.567 613.4 406.733C606 405.9 598.233 403.033 598.233 390.333C598.233 386.633 599.5 383.667 601.667 381.3C601.333 380.467 600.167 377 602 372.5C602 372.5 604.8 371.6 611.167 375.9C613.8 375.167 616.667 374.8 619.5 374.8C622.333 374.8 625.2 375.167 627.833 375.9C634.2 371.6 637 372.5 637 372.5C638.833 377 637.667 380.467 637.333 381.3C639.5 383.667 640.766 386.633 640.766 390.333C640.766 403.067 632.967 405.867 625.533 406.7C626.733 407.733 627.833 409.767 627.833 412.867V422C627.833 422.9 628.367 423.967 630.067 423.667C643.3 419.2 652.833 406.733 652.833 392C652.833 387.623 651.971 383.288 650.296 379.244C648.621 375.2 646.165 371.525 643.07 368.43C639.975 365.334 636.3 362.879 632.256 361.204C628.212 359.529 623.877 358.667 619.5 358.667Z" fill="#FEF0E4"/>
<path d="M518.197 467.805C516.791 467.805 515.707 467.541 514.945 467.014C514.184 466.493 513.803 465.76 513.803 464.816C513.803 464.146 514.014 463.573 514.438 463.098C514.867 462.622 515.46 462.307 516.215 462.15C515.935 462.02 515.694 461.825 515.492 461.564C515.297 461.304 515.199 461.005 515.199 460.666C515.199 460.275 515.307 459.934 515.521 459.641C515.743 459.341 516.078 459.055 516.527 458.781C515.967 458.553 515.512 458.169 515.16 457.629C514.815 457.082 514.643 456.447 514.643 455.725C514.643 454.956 514.802 454.302 515.121 453.762C515.44 453.215 515.902 452.798 516.508 452.512C517.113 452.225 517.846 452.082 518.705 452.082C518.894 452.082 519.083 452.092 519.271 452.111C519.467 452.124 519.652 452.147 519.828 452.18C520.004 452.206 520.157 452.238 520.287 452.277H523.959V453.322L521.986 453.566C522.182 453.82 522.344 454.126 522.475 454.484C522.605 454.842 522.67 455.24 522.67 455.676C522.67 456.743 522.309 457.593 521.586 458.225C520.863 458.85 519.87 459.162 518.607 459.162C518.308 459.162 518.002 459.136 517.689 459.084C517.37 459.26 517.126 459.455 516.957 459.67C516.794 459.885 516.713 460.132 516.713 460.412C516.713 460.62 516.775 460.786 516.898 460.91C517.029 461.034 517.214 461.125 517.455 461.184C517.696 461.236 517.986 461.262 518.324 461.262H520.209C521.374 461.262 522.266 461.506 522.885 461.994C523.51 462.482 523.822 463.195 523.822 464.133C523.822 465.318 523.34 466.226 522.377 466.857C521.413 467.489 520.02 467.805 518.197 467.805ZM518.246 466.535C519.132 466.535 519.864 466.444 520.443 466.262C521.029 466.086 521.465 465.829 521.752 465.49C522.045 465.158 522.191 464.761 522.191 464.299C522.191 463.869 522.094 463.544 521.898 463.322C521.703 463.107 521.417 462.964 521.039 462.893C520.661 462.814 520.199 462.775 519.652 462.775H517.797C517.315 462.775 516.895 462.85 516.537 463C516.179 463.15 515.902 463.371 515.707 463.664C515.518 463.957 515.424 464.322 515.424 464.758C515.424 465.337 515.668 465.777 516.156 466.076C516.645 466.382 517.341 466.535 518.246 466.535ZM518.666 457.98C519.441 457.98 520.023 457.785 520.414 457.395C520.805 457.004 521 456.434 521 455.686C521 454.885 520.801 454.286 520.404 453.889C520.007 453.485 519.421 453.283 518.646 453.283C517.904 453.283 517.331 453.492 516.928 453.908C516.531 454.318 516.332 454.921 516.332 455.715C516.332 456.444 516.534 457.004 516.938 457.395C517.341 457.785 517.917 457.98 518.666 457.98ZM527.689 452.297V463H526.068V452.297H527.689ZM526.898 448.293C527.165 448.293 527.393 448.381 527.582 448.557C527.777 448.726 527.875 448.993 527.875 449.357C527.875 449.715 527.777 449.982 527.582 450.158C527.393 450.334 527.165 450.422 526.898 450.422C526.618 450.422 526.384 450.334 526.195 450.158C526.013 449.982 525.922 449.715 525.922 449.357C525.922 448.993 526.013 448.726 526.195 448.557C526.384 448.381 526.618 448.293 526.898 448.293ZM534.584 461.867C534.851 461.867 535.124 461.844 535.404 461.799C535.684 461.753 535.912 461.698 536.088 461.633V462.893C535.899 462.977 535.635 463.049 535.297 463.107C534.965 463.166 534.639 463.195 534.32 463.195C533.754 463.195 533.24 463.098 532.777 462.902C532.315 462.701 531.944 462.362 531.664 461.887C531.391 461.411 531.254 460.754 531.254 459.914V453.566H529.73V452.775L531.264 452.141L531.908 449.816H532.885V452.297H536.02V453.566H532.885V459.865C532.885 460.536 533.038 461.037 533.344 461.369C533.656 461.701 534.07 461.867 534.584 461.867ZM539.877 447.805V452.346C539.877 452.606 539.87 452.87 539.857 453.137C539.844 453.397 539.822 453.638 539.789 453.859H539.896C540.118 453.482 540.398 453.166 540.736 452.912C541.081 452.652 541.472 452.456 541.908 452.326C542.344 452.189 542.807 452.121 543.295 452.121C544.154 452.121 544.87 452.258 545.443 452.531C546.023 452.805 546.456 453.228 546.742 453.801C547.035 454.374 547.182 455.116 547.182 456.027V463H545.58V456.135C545.58 455.243 545.375 454.576 544.965 454.133C544.561 453.69 543.939 453.469 543.1 453.469C542.305 453.469 541.671 453.622 541.195 453.928C540.727 454.227 540.388 454.67 540.18 455.256C539.978 455.842 539.877 456.558 539.877 457.404V463H538.256V447.805H539.877ZM559.359 452.297V463H558.031L557.797 461.496H557.709C557.488 461.867 557.201 462.18 556.85 462.434C556.498 462.688 556.101 462.876 555.658 463C555.222 463.13 554.757 463.195 554.262 463.195C553.415 463.195 552.706 463.059 552.133 462.785C551.56 462.512 551.127 462.089 550.834 461.516C550.548 460.943 550.404 460.207 550.404 459.309V452.297H552.045V459.191C552.045 460.083 552.247 460.751 552.65 461.193C553.054 461.63 553.669 461.848 554.496 461.848C555.29 461.848 555.922 461.698 556.391 461.398C556.866 461.099 557.208 460.66 557.416 460.08C557.624 459.494 557.729 458.778 557.729 457.932V452.297H559.359ZM564.408 447.805V451.604C564.408 452.04 564.395 452.463 564.369 452.873C564.35 453.283 564.333 453.602 564.32 453.83H564.408C564.701 453.348 565.124 452.941 565.678 452.609C566.231 452.277 566.938 452.111 567.797 452.111C569.138 452.111 570.206 452.577 571 453.508C571.801 454.432 572.201 455.809 572.201 457.639C572.201 458.843 572.019 459.859 571.654 460.686C571.29 461.512 570.775 462.137 570.111 462.561C569.447 462.984 568.663 463.195 567.758 463.195C566.911 463.195 566.215 463.039 565.668 462.727C565.128 462.408 564.711 462.02 564.418 461.564H564.291L563.959 463H562.787V447.805H564.408ZM567.533 453.469C566.758 453.469 566.143 453.622 565.688 453.928C565.232 454.227 564.903 454.683 564.701 455.295C564.506 455.9 564.408 456.669 564.408 457.6V457.688C564.408 459.035 564.633 460.067 565.082 460.783C565.531 461.493 566.348 461.848 567.533 461.848C568.529 461.848 569.275 461.483 569.77 460.754C570.271 460.025 570.521 458.983 570.521 457.629C570.521 456.249 570.274 455.21 569.779 454.514C569.291 453.817 568.542 453.469 567.533 453.469ZM574.789 461.984C574.789 461.529 574.9 461.206 575.121 461.018C575.342 460.822 575.613 460.725 575.932 460.725C576.264 460.725 576.544 460.822 576.771 461.018C576.999 461.206 577.113 461.529 577.113 461.984C577.113 462.434 576.999 462.762 576.771 462.971C576.544 463.173 576.264 463.273 575.932 463.273C575.613 463.273 575.342 463.173 575.121 462.971C574.9 462.762 574.789 462.434 574.789 461.984ZM584.574 463.195C583.611 463.195 582.761 462.997 582.025 462.6C581.29 462.202 580.717 461.597 580.307 460.783C579.896 459.969 579.691 458.944 579.691 457.707C579.691 456.411 579.906 455.354 580.336 454.533C580.772 453.706 581.371 453.094 582.133 452.697C582.895 452.3 583.76 452.102 584.73 452.102C585.264 452.102 585.779 452.157 586.273 452.268C586.775 452.372 587.185 452.505 587.504 452.668L587.016 454.025C586.69 453.895 586.312 453.778 585.883 453.674C585.46 453.57 585.062 453.518 584.691 453.518C583.949 453.518 583.331 453.677 582.836 453.996C582.348 454.315 581.98 454.784 581.732 455.402C581.492 456.021 581.371 456.783 581.371 457.688C581.371 458.553 581.488 459.292 581.723 459.904C581.964 460.516 582.318 460.985 582.787 461.311C583.262 461.63 583.855 461.789 584.564 461.789C585.131 461.789 585.642 461.73 586.098 461.613C586.553 461.49 586.967 461.346 587.338 461.184V462.629C586.98 462.811 586.579 462.951 586.137 463.049C585.701 463.146 585.18 463.195 584.574 463.195ZM599.105 457.629C599.105 458.508 598.992 459.292 598.764 459.982C598.536 460.673 598.207 461.255 597.777 461.73C597.348 462.206 596.827 462.57 596.215 462.824C595.609 463.072 594.923 463.195 594.154 463.195C593.438 463.195 592.781 463.072 592.182 462.824C591.589 462.57 591.075 462.206 590.639 461.73C590.209 461.255 589.874 460.673 589.633 459.982C589.398 459.292 589.281 458.508 589.281 457.629C589.281 456.457 589.48 455.461 589.877 454.641C590.274 453.814 590.84 453.186 591.576 452.756C592.318 452.32 593.201 452.102 594.223 452.102C595.199 452.102 596.052 452.32 596.781 452.756C597.517 453.192 598.087 453.824 598.49 454.65C598.9 455.471 599.105 456.464 599.105 457.629ZM590.961 457.629C590.961 458.488 591.075 459.234 591.303 459.865C591.531 460.497 591.882 460.985 592.357 461.33C592.833 461.675 593.445 461.848 594.193 461.848C594.936 461.848 595.544 461.675 596.02 461.33C596.501 460.985 596.856 460.497 597.084 459.865C597.312 459.234 597.426 458.488 597.426 457.629C597.426 456.776 597.312 456.04 597.084 455.422C596.856 454.797 596.505 454.315 596.029 453.977C595.554 453.638 594.939 453.469 594.184 453.469C593.07 453.469 592.253 453.837 591.732 454.572C591.218 455.308 590.961 456.327 590.961 457.629ZM613.529 452.102C614.708 452.102 615.596 452.411 616.195 453.029C616.794 453.641 617.094 454.628 617.094 455.988V463H615.492V456.066C615.492 455.201 615.303 454.553 614.926 454.123C614.555 453.687 614.001 453.469 613.266 453.469C612.23 453.469 611.479 453.768 611.01 454.367C610.541 454.966 610.307 455.848 610.307 457.014V463H608.695V456.066C608.695 455.487 608.611 455.005 608.441 454.621C608.279 454.237 608.031 453.951 607.699 453.762C607.374 453.566 606.96 453.469 606.459 453.469C605.749 453.469 605.18 453.615 604.75 453.908C604.32 454.201 604.008 454.637 603.812 455.217C603.624 455.79 603.529 456.496 603.529 457.336V463H601.908V452.297H603.217L603.461 453.811H603.549C603.764 453.439 604.034 453.127 604.359 452.873C604.685 452.619 605.049 452.427 605.453 452.297C605.857 452.167 606.286 452.102 606.742 452.102C607.556 452.102 608.236 452.255 608.783 452.561C609.337 452.86 609.737 453.319 609.984 453.938H610.072C610.424 453.319 610.906 452.86 611.518 452.561C612.13 452.255 612.8 452.102 613.529 452.102ZM625.834 448.723L620.521 463H618.92L624.242 448.723H625.834ZM631.576 463.195C630.222 463.195 629.148 462.733 628.354 461.809C627.566 460.884 627.172 459.51 627.172 457.688C627.172 455.845 627.576 454.455 628.383 453.518C629.19 452.574 630.264 452.102 631.605 452.102C632.172 452.102 632.667 452.176 633.09 452.326C633.513 452.476 633.878 452.678 634.184 452.932C634.49 453.179 634.747 453.462 634.955 453.781H635.072C635.046 453.579 635.02 453.303 634.994 452.951C634.968 452.6 634.955 452.313 634.955 452.092V447.805H636.576V463H635.268L635.023 461.477H634.955C634.753 461.796 634.496 462.085 634.184 462.346C633.878 462.606 633.51 462.814 633.08 462.971C632.657 463.12 632.156 463.195 631.576 463.195ZM631.83 461.848C632.976 461.848 633.786 461.522 634.262 460.871C634.737 460.22 634.975 459.253 634.975 457.971V457.678C634.975 456.317 634.747 455.272 634.291 454.543C633.842 453.814 633.021 453.449 631.83 453.449C630.834 453.449 630.089 453.833 629.594 454.602C629.099 455.363 628.852 456.405 628.852 457.727C628.852 459.042 629.096 460.057 629.584 460.773C630.079 461.49 630.827 461.848 631.83 461.848ZM641.635 452.297V463H640.014V452.297H641.635ZM640.844 448.293C641.111 448.293 641.339 448.381 641.527 448.557C641.723 448.726 641.82 448.993 641.82 449.357C641.82 449.715 641.723 449.982 641.527 450.158C641.339 450.334 641.111 450.422 640.844 450.422C640.564 450.422 640.329 450.334 640.141 450.158C639.958 449.982 639.867 449.715 639.867 449.357C639.867 448.993 639.958 448.726 640.141 448.557C640.329 448.381 640.564 448.293 640.844 448.293ZM649.193 452.102C650.105 452.102 650.886 452.303 651.537 452.707C652.188 453.111 652.686 453.677 653.031 454.406C653.376 455.129 653.549 455.975 653.549 456.945V457.951H646.156C646.176 459.208 646.488 460.165 647.094 460.822C647.699 461.48 648.552 461.809 649.652 461.809C650.329 461.809 650.928 461.747 651.449 461.623C651.97 461.499 652.51 461.317 653.07 461.076V462.502C652.53 462.743 651.993 462.919 651.459 463.029C650.932 463.14 650.307 463.195 649.584 463.195C648.555 463.195 647.657 462.987 646.889 462.57C646.127 462.147 645.535 461.529 645.111 460.715C644.688 459.901 644.477 458.905 644.477 457.727C644.477 456.574 644.669 455.578 645.053 454.738C645.443 453.892 645.99 453.241 646.693 452.785C647.403 452.329 648.236 452.102 649.193 452.102ZM649.174 453.43C648.308 453.43 647.618 453.713 647.104 454.279C646.589 454.846 646.283 455.637 646.186 456.652H651.85C651.843 456.014 651.742 455.454 651.547 454.973C651.358 454.484 651.068 454.107 650.678 453.84C650.287 453.566 649.786 453.43 649.174 453.43ZM659.291 467.805C657.885 467.805 656.801 467.541 656.039 467.014C655.277 466.493 654.896 465.76 654.896 464.816C654.896 464.146 655.108 463.573 655.531 463.098C655.961 462.622 656.553 462.307 657.309 462.15C657.029 462.02 656.788 461.825 656.586 461.564C656.391 461.304 656.293 461.005 656.293 460.666C656.293 460.275 656.4 459.934 656.615 459.641C656.837 459.341 657.172 459.055 657.621 458.781C657.061 458.553 656.605 458.169 656.254 457.629C655.909 457.082 655.736 456.447 655.736 455.725C655.736 454.956 655.896 454.302 656.215 453.762C656.534 453.215 656.996 452.798 657.602 452.512C658.207 452.225 658.939 452.082 659.799 452.082C659.988 452.082 660.176 452.092 660.365 452.111C660.561 452.124 660.746 452.147 660.922 452.18C661.098 452.206 661.251 452.238 661.381 452.277H665.053V453.322L663.08 453.566C663.275 453.82 663.438 454.126 663.568 454.484C663.699 454.842 663.764 455.24 663.764 455.676C663.764 456.743 663.402 457.593 662.68 458.225C661.957 458.85 660.964 459.162 659.701 459.162C659.402 459.162 659.096 459.136 658.783 459.084C658.464 459.26 658.22 459.455 658.051 459.67C657.888 459.885 657.807 460.132 657.807 460.412C657.807 460.62 657.868 460.786 657.992 460.91C658.122 461.034 658.308 461.125 658.549 461.184C658.79 461.236 659.079 461.262 659.418 461.262H661.303C662.468 461.262 663.36 461.506 663.979 461.994C664.604 462.482 664.916 463.195 664.916 464.133C664.916 465.318 664.434 466.226 663.471 466.857C662.507 467.489 661.114 467.805 659.291 467.805ZM659.34 466.535C660.225 466.535 660.958 466.444 661.537 466.262C662.123 466.086 662.559 465.829 662.846 465.49C663.139 465.158 663.285 464.761 663.285 464.299C663.285 463.869 663.188 463.544 662.992 463.322C662.797 463.107 662.51 462.964 662.133 462.893C661.755 462.814 661.293 462.775 660.746 462.775H658.891C658.409 462.775 657.989 462.85 657.631 463C657.273 463.15 656.996 463.371 656.801 463.664C656.612 463.957 656.518 464.322 656.518 464.758C656.518 465.337 656.762 465.777 657.25 466.076C657.738 466.382 658.435 466.535 659.34 466.535ZM659.76 457.98C660.535 457.98 661.117 457.785 661.508 457.395C661.898 457.004 662.094 456.434 662.094 455.686C662.094 454.885 661.895 454.286 661.498 453.889C661.101 453.485 660.515 453.283 659.74 453.283C658.998 453.283 658.425 453.492 658.021 453.908C657.624 454.318 657.426 454.921 657.426 455.715C657.426 456.444 657.628 457.004 658.031 457.395C658.435 457.785 659.011 457.98 659.76 457.98ZM676.391 457.629C676.391 458.508 676.277 459.292 676.049 459.982C675.821 460.673 675.492 461.255 675.062 461.73C674.633 462.206 674.112 462.57 673.5 462.824C672.895 463.072 672.208 463.195 671.439 463.195C670.723 463.195 670.066 463.072 669.467 462.824C668.874 462.57 668.36 462.206 667.924 461.73C667.494 461.255 667.159 460.673 666.918 459.982C666.684 459.292 666.566 458.508 666.566 457.629C666.566 456.457 666.765 455.461 667.162 454.641C667.559 453.814 668.126 453.186 668.861 452.756C669.604 452.32 670.486 452.102 671.508 452.102C672.484 452.102 673.337 452.32 674.066 452.756C674.802 453.192 675.372 453.824 675.775 454.65C676.186 455.471 676.391 456.464 676.391 457.629ZM668.246 457.629C668.246 458.488 668.36 459.234 668.588 459.865C668.816 460.497 669.167 460.985 669.643 461.33C670.118 461.675 670.73 461.848 671.479 461.848C672.221 461.848 672.829 461.675 673.305 461.33C673.786 460.985 674.141 460.497 674.369 459.865C674.597 459.234 674.711 458.488 674.711 457.629C674.711 456.776 674.597 456.04 674.369 455.422C674.141 454.797 673.79 454.315 673.314 453.977C672.839 453.638 672.224 453.469 671.469 453.469C670.355 453.469 669.538 453.837 669.018 454.572C668.503 455.308 668.246 456.327 668.246 457.629ZM684.057 452.102C684.271 452.102 684.496 452.115 684.73 452.141C684.965 452.16 685.173 452.189 685.355 452.229L685.15 453.732C684.975 453.687 684.779 453.651 684.564 453.625C684.35 453.599 684.148 453.586 683.959 453.586C683.529 453.586 683.122 453.674 682.738 453.85C682.361 454.019 682.029 454.266 681.742 454.592C681.456 454.911 681.231 455.298 681.068 455.754C680.906 456.203 680.824 456.704 680.824 457.258V463H679.193V452.297H680.541L680.717 454.27H680.785C681.007 453.872 681.273 453.511 681.586 453.186C681.898 452.854 682.26 452.59 682.67 452.395C683.087 452.199 683.549 452.102 684.057 452.102ZM691.498 452.102C692.41 452.102 693.191 452.303 693.842 452.707C694.493 453.111 694.991 453.677 695.336 454.406C695.681 455.129 695.854 455.975 695.854 456.945V457.951H688.461C688.48 459.208 688.793 460.165 689.398 460.822C690.004 461.48 690.857 461.809 691.957 461.809C692.634 461.809 693.233 461.747 693.754 461.623C694.275 461.499 694.815 461.317 695.375 461.076V462.502C694.835 462.743 694.298 462.919 693.764 463.029C693.236 463.14 692.611 463.195 691.889 463.195C690.86 463.195 689.962 462.987 689.193 462.57C688.432 462.147 687.839 461.529 687.416 460.715C686.993 459.901 686.781 458.905 686.781 457.727C686.781 456.574 686.973 455.578 687.357 454.738C687.748 453.892 688.295 453.241 688.998 452.785C689.708 452.329 690.541 452.102 691.498 452.102ZM691.479 453.43C690.613 453.43 689.923 453.713 689.408 454.279C688.894 454.846 688.588 455.637 688.49 456.652H694.154C694.148 456.014 694.047 455.454 693.852 454.973C693.663 454.484 693.373 454.107 692.982 453.84C692.592 453.566 692.09 453.43 691.479 453.43ZM705.482 463H697.68V461.926L703.549 453.566H698.051V452.297H705.355V453.498L699.564 461.74H705.482V463ZM719.604 452.102C720.782 452.102 721.671 452.411 722.27 453.029C722.868 453.641 723.168 454.628 723.168 455.988V463H721.566V456.066C721.566 455.201 721.378 454.553 721 454.123C720.629 453.687 720.076 453.469 719.34 453.469C718.305 453.469 717.553 453.768 717.084 454.367C716.615 454.966 716.381 455.848 716.381 457.014V463H714.77V456.066C714.77 455.487 714.685 455.005 714.516 454.621C714.353 454.237 714.105 453.951 713.773 453.762C713.448 453.566 713.035 453.469 712.533 453.469C711.824 453.469 711.254 453.615 710.824 453.908C710.395 454.201 710.082 454.637 709.887 455.217C709.698 455.79 709.604 456.496 709.604 457.336V463H707.982V452.297H709.291L709.535 453.811H709.623C709.838 453.439 710.108 453.127 710.434 452.873C710.759 452.619 711.124 452.427 711.527 452.297C711.931 452.167 712.361 452.102 712.816 452.102C713.63 452.102 714.311 452.255 714.857 452.561C715.411 452.86 715.811 453.319 716.059 453.938H716.146C716.498 453.319 716.98 452.86 717.592 452.561C718.204 452.255 718.874 452.102 719.604 452.102Z" fill="#FEF0E4"/>
<path d="M919.333 365.333H972.667C976.333 365.333 979.3 368.333 979.3 372L979.333 412C979.333 415.667 976.333 418.667 972.667 418.667H919.333C915.667 418.667 912.667 415.667 912.667 412V372C912.667 368.333 915.667 365.333 919.333 365.333ZM919.333 378.667L946 395.333L972.667 378.667V372L946 388.667L919.333 372V378.667Z" fill="#FEF0E4"/>
<path d="M841.496 463.195C840.533 463.195 839.683 462.997 838.947 462.6C838.212 462.202 837.639 461.597 837.229 460.783C836.818 459.969 836.613 458.944 836.613 457.707C836.613 456.411 836.828 455.354 837.258 454.533C837.694 453.706 838.293 453.094 839.055 452.697C839.816 452.3 840.682 452.102 841.652 452.102C842.186 452.102 842.701 452.157 843.195 452.268C843.697 452.372 844.107 452.505 844.426 452.668L843.938 454.025C843.612 453.895 843.234 453.778 842.805 453.674C842.382 453.57 841.984 453.518 841.613 453.518C840.871 453.518 840.253 453.677 839.758 453.996C839.27 454.315 838.902 454.784 838.654 455.402C838.413 456.021 838.293 456.783 838.293 457.688C838.293 458.553 838.41 459.292 838.645 459.904C838.885 460.516 839.24 460.985 839.709 461.311C840.184 461.63 840.777 461.789 841.486 461.789C842.053 461.789 842.564 461.73 843.02 461.613C843.475 461.49 843.889 461.346 844.26 461.184V462.629C843.902 462.811 843.501 462.951 843.059 463.049C842.622 463.146 842.102 463.195 841.496 463.195ZM856.027 457.629C856.027 458.508 855.913 459.292 855.686 459.982C855.458 460.673 855.129 461.255 854.699 461.73C854.27 462.206 853.749 462.57 853.137 462.824C852.531 463.072 851.844 463.195 851.076 463.195C850.36 463.195 849.702 463.072 849.104 462.824C848.511 462.57 847.997 462.206 847.561 461.73C847.131 461.255 846.796 460.673 846.555 459.982C846.32 459.292 846.203 458.508 846.203 457.629C846.203 456.457 846.402 455.461 846.799 454.641C847.196 453.814 847.762 453.186 848.498 452.756C849.24 452.32 850.122 452.102 851.145 452.102C852.121 452.102 852.974 452.32 853.703 452.756C854.439 453.192 855.008 453.824 855.412 454.65C855.822 455.471 856.027 456.464 856.027 457.629ZM847.883 457.629C847.883 458.488 847.997 459.234 848.225 459.865C848.452 460.497 848.804 460.985 849.279 461.33C849.755 461.675 850.367 461.848 851.115 461.848C851.857 461.848 852.466 461.675 852.941 461.33C853.423 460.985 853.778 460.497 854.006 459.865C854.234 459.234 854.348 458.488 854.348 457.629C854.348 456.776 854.234 456.04 854.006 455.422C853.778 454.797 853.426 454.315 852.951 453.977C852.476 453.638 851.861 453.469 851.105 453.469C849.992 453.469 849.175 453.837 848.654 454.572C848.14 455.308 847.883 456.327 847.883 457.629ZM863.898 452.102C865.168 452.102 866.128 452.414 866.779 453.039C867.43 453.658 867.756 454.654 867.756 456.027V463H866.154V456.135C866.154 455.243 865.949 454.576 865.539 454.133C865.135 453.69 864.514 453.469 863.674 453.469C862.489 453.469 861.656 453.804 861.174 454.475C860.692 455.145 860.451 456.118 860.451 457.395V463H858.83V452.297H860.139L860.383 453.84H860.471C860.699 453.462 860.988 453.146 861.34 452.893C861.691 452.632 862.085 452.437 862.521 452.307C862.958 452.17 863.417 452.102 863.898 452.102ZM874.553 461.867C874.82 461.867 875.093 461.844 875.373 461.799C875.653 461.753 875.881 461.698 876.057 461.633V462.893C875.868 462.977 875.604 463.049 875.266 463.107C874.934 463.166 874.608 463.195 874.289 463.195C873.723 463.195 873.208 463.098 872.746 462.902C872.284 462.701 871.913 462.362 871.633 461.887C871.359 461.411 871.223 460.754 871.223 459.914V453.566H869.699V452.775L871.232 452.141L871.877 449.816H872.854V452.297H875.988V453.566H872.854V459.865C872.854 460.536 873.007 461.037 873.312 461.369C873.625 461.701 874.038 461.867 874.553 461.867ZM882.229 452.121C883.505 452.121 884.452 452.408 885.07 452.98C885.689 453.553 885.998 454.468 885.998 455.725V463H884.816L884.504 461.418H884.426C884.126 461.809 883.814 462.137 883.488 462.404C883.163 462.665 882.785 462.863 882.355 463C881.932 463.13 881.411 463.195 880.793 463.195C880.142 463.195 879.562 463.081 879.055 462.854C878.553 462.626 878.156 462.281 877.863 461.818C877.577 461.356 877.434 460.77 877.434 460.061C877.434 458.993 877.857 458.173 878.703 457.6C879.549 457.027 880.839 456.714 882.57 456.662L884.416 456.584V455.93C884.416 455.005 884.217 454.357 883.82 453.986C883.423 453.615 882.863 453.43 882.141 453.43C881.581 453.43 881.047 453.511 880.539 453.674C880.031 453.837 879.549 454.029 879.094 454.25L878.596 453.02C879.077 452.772 879.631 452.561 880.256 452.385C880.881 452.209 881.538 452.121 882.229 452.121ZM884.396 457.727L882.766 457.795C881.431 457.847 880.49 458.065 879.943 458.449C879.396 458.833 879.123 459.377 879.123 460.08C879.123 460.692 879.309 461.145 879.68 461.438C880.051 461.73 880.542 461.877 881.154 461.877C882.105 461.877 882.883 461.613 883.488 461.086C884.094 460.559 884.396 459.768 884.396 458.713V457.727ZM893.625 463.195C892.661 463.195 891.812 462.997 891.076 462.6C890.34 462.202 889.768 461.597 889.357 460.783C888.947 459.969 888.742 458.944 888.742 457.707C888.742 456.411 888.957 455.354 889.387 454.533C889.823 453.706 890.422 453.094 891.184 452.697C891.945 452.3 892.811 452.102 893.781 452.102C894.315 452.102 894.829 452.157 895.324 452.268C895.826 452.372 896.236 452.505 896.555 452.668L896.066 454.025C895.741 453.895 895.363 453.778 894.934 453.674C894.51 453.57 894.113 453.518 893.742 453.518C893 453.518 892.382 453.677 891.887 453.996C891.398 454.315 891.031 454.784 890.783 455.402C890.542 456.021 890.422 456.783 890.422 457.688C890.422 458.553 890.539 459.292 890.773 459.904C891.014 460.516 891.369 460.985 891.838 461.311C892.313 461.63 892.906 461.789 893.615 461.789C894.182 461.789 894.693 461.73 895.148 461.613C895.604 461.49 896.018 461.346 896.389 461.184V462.629C896.031 462.811 895.63 462.951 895.188 463.049C894.751 463.146 894.23 463.195 893.625 463.195ZM902.385 461.867C902.652 461.867 902.925 461.844 903.205 461.799C903.485 461.753 903.713 461.698 903.889 461.633V462.893C903.7 462.977 903.436 463.049 903.098 463.107C902.766 463.166 902.44 463.195 902.121 463.195C901.555 463.195 901.04 463.098 900.578 462.902C900.116 462.701 899.745 462.362 899.465 461.887C899.191 461.411 899.055 460.754 899.055 459.914V453.566H897.531V452.775L899.064 452.141L899.709 449.816H900.686V452.297H903.82V453.566H900.686V459.865C900.686 460.536 900.839 461.037 901.145 461.369C901.457 461.701 901.87 461.867 902.385 461.867ZM921.135 455.871C921.135 456.49 921.063 457.095 920.92 457.688C920.783 458.273 920.572 458.804 920.285 459.279C919.999 459.748 919.641 460.122 919.211 460.402C918.788 460.682 918.286 460.822 917.707 460.822C917.102 460.822 916.62 460.646 916.262 460.295C915.904 459.943 915.689 459.527 915.617 459.045H915.529C915.282 459.559 914.917 459.986 914.436 460.324C913.96 460.656 913.374 460.822 912.678 460.822C911.662 460.822 910.878 460.487 910.324 459.816C909.777 459.139 909.504 458.241 909.504 457.121C909.504 456.249 909.676 455.477 910.021 454.807C910.373 454.13 910.865 453.599 911.496 453.215C912.134 452.824 912.886 452.629 913.752 452.629C914.331 452.629 914.895 452.678 915.441 452.775C915.988 452.873 916.424 452.98 916.75 453.098L916.555 457.033C916.548 457.274 916.542 457.46 916.535 457.59C916.529 457.714 916.525 457.811 916.525 457.883C916.525 458.586 916.649 459.061 916.896 459.309C917.15 459.549 917.456 459.67 917.814 459.67C918.251 459.67 918.615 459.501 918.908 459.162C919.208 458.817 919.436 458.358 919.592 457.785C919.748 457.206 919.826 456.564 919.826 455.861C919.826 454.618 919.576 453.557 919.074 452.678C918.573 451.799 917.88 451.128 916.994 450.666C916.115 450.204 915.103 449.973 913.957 449.973C912.818 449.973 911.805 450.152 910.92 450.51C910.041 450.868 909.296 451.376 908.684 452.033C908.078 452.684 907.619 453.459 907.307 454.357C906.994 455.256 906.838 456.249 906.838 457.336C906.838 458.664 907.072 459.794 907.541 460.725C908.016 461.656 908.71 462.365 909.621 462.854C910.539 463.335 911.656 463.576 912.971 463.576C913.765 463.576 914.53 463.488 915.266 463.312C916.001 463.137 916.659 462.938 917.238 462.717V463.986C916.665 464.227 916.024 464.423 915.314 464.572C914.605 464.729 913.824 464.807 912.971 464.807C911.402 464.807 910.061 464.51 908.947 463.918C907.834 463.332 906.981 462.486 906.389 461.379C905.796 460.272 905.5 458.944 905.5 457.395C905.5 456.138 905.692 454.982 906.076 453.928C906.467 452.873 907.027 451.958 907.756 451.184C908.492 450.409 909.38 449.81 910.422 449.387C911.47 448.957 912.648 448.742 913.957 448.742C915.357 448.742 916.594 449.032 917.668 449.611C918.749 450.184 919.595 451.005 920.207 452.072C920.826 453.133 921.135 454.4 921.135 455.871ZM910.959 457.16C910.959 458.026 911.132 458.661 911.477 459.064C911.822 459.468 912.3 459.67 912.912 459.67C913.667 459.67 914.221 459.387 914.572 458.82C914.93 458.254 915.135 457.505 915.188 456.574L915.305 454.025C915.116 453.967 914.885 453.918 914.611 453.879C914.344 453.833 914.064 453.811 913.771 453.811C913.101 453.811 912.557 453.97 912.141 454.289C911.73 454.608 911.431 455.021 911.242 455.529C911.053 456.037 910.959 456.581 910.959 457.16ZM927.795 463.195C926.441 463.195 925.367 462.733 924.572 461.809C923.785 460.884 923.391 459.51 923.391 457.688C923.391 455.845 923.794 454.455 924.602 453.518C925.409 452.574 926.483 452.102 927.824 452.102C928.391 452.102 928.885 452.176 929.309 452.326C929.732 452.476 930.096 452.678 930.402 452.932C930.708 453.179 930.965 453.462 931.174 453.781H931.291C931.265 453.579 931.239 453.303 931.213 452.951C931.187 452.6 931.174 452.313 931.174 452.092V447.805H932.795V463H931.486L931.242 461.477H931.174C930.972 461.796 930.715 462.085 930.402 462.346C930.096 462.606 929.729 462.814 929.299 462.971C928.876 463.12 928.374 463.195 927.795 463.195ZM928.049 461.848C929.195 461.848 930.005 461.522 930.48 460.871C930.956 460.22 931.193 459.253 931.193 457.971V457.678C931.193 456.317 930.965 455.272 930.51 454.543C930.061 453.814 929.24 453.449 928.049 453.449C927.053 453.449 926.307 453.833 925.812 454.602C925.318 455.363 925.07 456.405 925.07 457.727C925.07 459.042 925.314 460.057 925.803 460.773C926.298 461.49 927.046 461.848 928.049 461.848ZM937.854 452.297V463H936.232V452.297H937.854ZM937.062 448.293C937.329 448.293 937.557 448.381 937.746 448.557C937.941 448.726 938.039 448.993 938.039 449.357C938.039 449.715 937.941 449.982 937.746 450.158C937.557 450.334 937.329 450.422 937.062 450.422C936.783 450.422 936.548 450.334 936.359 450.158C936.177 449.982 936.086 449.715 936.086 449.357C936.086 448.993 936.177 448.726 936.359 448.557C936.548 448.381 936.783 448.293 937.062 448.293ZM945.412 452.102C946.324 452.102 947.105 452.303 947.756 452.707C948.407 453.111 948.905 453.677 949.25 454.406C949.595 455.129 949.768 455.975 949.768 456.945V457.951H942.375C942.395 459.208 942.707 460.165 943.312 460.822C943.918 461.48 944.771 461.809 945.871 461.809C946.548 461.809 947.147 461.747 947.668 461.623C948.189 461.499 948.729 461.317 949.289 461.076V462.502C948.749 462.743 948.212 462.919 947.678 463.029C947.15 463.14 946.525 463.195 945.803 463.195C944.774 463.195 943.876 462.987 943.107 462.57C942.346 462.147 941.753 461.529 941.33 460.715C940.907 459.901 940.695 458.905 940.695 457.727C940.695 456.574 940.887 455.578 941.271 454.738C941.662 453.892 942.209 453.241 942.912 452.785C943.622 452.329 944.455 452.102 945.412 452.102ZM945.393 453.43C944.527 453.43 943.837 453.713 943.322 454.279C942.808 454.846 942.502 455.637 942.404 456.652H948.068C948.062 456.014 947.961 455.454 947.766 454.973C947.577 454.484 947.287 454.107 946.896 453.84C946.506 453.566 946.005 453.43 945.393 453.43ZM955.51 467.805C954.104 467.805 953.02 467.541 952.258 467.014C951.496 466.493 951.115 465.76 951.115 464.816C951.115 464.146 951.327 463.573 951.75 463.098C952.18 462.622 952.772 462.307 953.527 462.15C953.247 462.02 953.007 461.825 952.805 461.564C952.609 461.304 952.512 461.005 952.512 460.666C952.512 460.275 952.619 459.934 952.834 459.641C953.055 459.341 953.391 459.055 953.84 458.781C953.28 458.553 952.824 458.169 952.473 457.629C952.128 457.082 951.955 456.447 951.955 455.725C951.955 454.956 952.115 454.302 952.434 453.762C952.753 453.215 953.215 452.798 953.82 452.512C954.426 452.225 955.158 452.082 956.018 452.082C956.206 452.082 956.395 452.092 956.584 452.111C956.779 452.124 956.965 452.147 957.141 452.18C957.316 452.206 957.469 452.238 957.6 452.277H961.271V453.322L959.299 453.566C959.494 453.82 959.657 454.126 959.787 454.484C959.917 454.842 959.982 455.24 959.982 455.676C959.982 456.743 959.621 457.593 958.898 458.225C958.176 458.85 957.183 459.162 955.92 459.162C955.62 459.162 955.314 459.136 955.002 459.084C954.683 459.26 954.439 459.455 954.27 459.67C954.107 459.885 954.025 460.132 954.025 460.412C954.025 460.62 954.087 460.786 954.211 460.91C954.341 461.034 954.527 461.125 954.768 461.184C955.008 461.236 955.298 461.262 955.637 461.262H957.521C958.687 461.262 959.579 461.506 960.197 461.994C960.822 462.482 961.135 463.195 961.135 464.133C961.135 465.318 960.653 466.226 959.689 466.857C958.726 467.489 957.333 467.805 955.51 467.805ZM955.559 466.535C956.444 466.535 957.176 466.444 957.756 466.262C958.342 466.086 958.778 465.829 959.064 465.49C959.357 465.158 959.504 464.761 959.504 464.299C959.504 463.869 959.406 463.544 959.211 463.322C959.016 463.107 958.729 462.964 958.352 462.893C957.974 462.814 957.512 462.775 956.965 462.775H955.109C954.628 462.775 954.208 462.85 953.85 463C953.492 463.15 953.215 463.371 953.02 463.664C952.831 463.957 952.736 464.322 952.736 464.758C952.736 465.337 952.98 465.777 953.469 466.076C953.957 466.382 954.654 466.535 955.559 466.535ZM955.979 457.98C956.753 457.98 957.336 457.785 957.727 457.395C958.117 457.004 958.312 456.434 958.312 455.686C958.312 454.885 958.114 454.286 957.717 453.889C957.32 453.485 956.734 453.283 955.959 453.283C955.217 453.283 954.644 453.492 954.24 453.908C953.843 454.318 953.645 454.921 953.645 455.715C953.645 456.444 953.846 457.004 954.25 457.395C954.654 457.785 955.23 457.98 955.979 457.98ZM972.609 457.629C972.609 458.508 972.495 459.292 972.268 459.982C972.04 460.673 971.711 461.255 971.281 461.73C970.852 462.206 970.331 462.57 969.719 462.824C969.113 463.072 968.426 463.195 967.658 463.195C966.942 463.195 966.285 463.072 965.686 462.824C965.093 462.57 964.579 462.206 964.143 461.73C963.713 461.255 963.378 460.673 963.137 459.982C962.902 459.292 962.785 458.508 962.785 457.629C962.785 456.457 962.984 455.461 963.381 454.641C963.778 453.814 964.344 453.186 965.08 452.756C965.822 452.32 966.704 452.102 967.727 452.102C968.703 452.102 969.556 452.32 970.285 452.756C971.021 453.192 971.59 453.824 971.994 454.65C972.404 455.471 972.609 456.464 972.609 457.629ZM964.465 457.629C964.465 458.488 964.579 459.234 964.807 459.865C965.035 460.497 965.386 460.985 965.861 461.33C966.337 461.675 966.949 461.848 967.697 461.848C968.439 461.848 969.048 461.675 969.523 461.33C970.005 460.985 970.36 460.497 970.588 459.865C970.816 459.234 970.93 458.488 970.93 457.629C970.93 456.776 970.816 456.04 970.588 455.422C970.36 454.797 970.008 454.315 969.533 453.977C969.058 453.638 968.443 453.469 967.688 453.469C966.574 453.469 965.757 453.837 965.236 454.572C964.722 455.308 964.465 456.327 964.465 457.629ZM980.275 452.102C980.49 452.102 980.715 452.115 980.949 452.141C981.184 452.16 981.392 452.189 981.574 452.229L981.369 453.732C981.193 453.687 980.998 453.651 980.783 453.625C980.568 453.599 980.367 453.586 980.178 453.586C979.748 453.586 979.341 453.674 978.957 453.85C978.579 454.019 978.247 454.266 977.961 454.592C977.674 454.911 977.45 455.298 977.287 455.754C977.124 456.203 977.043 456.704 977.043 457.258V463H975.412V452.297H976.76L976.936 454.27H977.004C977.225 453.872 977.492 453.511 977.805 453.186C978.117 452.854 978.479 452.59 978.889 452.395C979.305 452.199 979.768 452.102 980.275 452.102ZM987.717 452.102C988.628 452.102 989.41 452.303 990.061 452.707C990.712 453.111 991.21 453.677 991.555 454.406C991.9 455.129 992.072 455.975 992.072 456.945V457.951H984.68C984.699 459.208 985.012 460.165 985.617 460.822C986.223 461.48 987.076 461.809 988.176 461.809C988.853 461.809 989.452 461.747 989.973 461.623C990.493 461.499 991.034 461.317 991.594 461.076V462.502C991.053 462.743 990.516 462.919 989.982 463.029C989.455 463.14 988.83 463.195 988.107 463.195C987.079 463.195 986.18 462.987 985.412 462.57C984.65 462.147 984.058 461.529 983.635 460.715C983.212 459.901 983 458.905 983 457.727C983 456.574 983.192 455.578 983.576 454.738C983.967 453.892 984.514 453.241 985.217 452.785C985.926 452.329 986.76 452.102 987.717 452.102ZM987.697 453.43C986.831 453.43 986.141 453.713 985.627 454.279C985.113 454.846 984.807 455.637 984.709 456.652H990.373C990.367 456.014 990.266 455.454 990.07 454.973C989.882 454.484 989.592 454.107 989.201 453.84C988.811 453.566 988.309 453.43 987.697 453.43ZM1001.7 463H993.898V461.926L999.768 453.566H994.27V452.297H1001.57V453.498L995.783 461.74H1001.7V463ZM1015.82 452.102C1017 452.102 1017.89 452.411 1018.49 453.029C1019.09 453.641 1019.39 454.628 1019.39 455.988V463H1017.79V456.066C1017.79 455.201 1017.6 454.553 1017.22 454.123C1016.85 453.687 1016.29 453.469 1015.56 453.469C1014.52 453.469 1013.77 453.768 1013.3 454.367C1012.83 454.966 1012.6 455.848 1012.6 457.014V463H1010.99V456.066C1010.99 455.487 1010.9 455.005 1010.73 454.621C1010.57 454.237 1010.32 453.951 1009.99 453.762C1009.67 453.566 1009.25 453.469 1008.75 453.469C1008.04 453.469 1007.47 453.615 1007.04 453.908C1006.61 454.201 1006.3 454.637 1006.11 455.217C1005.92 455.79 1005.82 456.496 1005.82 457.336V463H1004.2V452.297H1005.51L1005.75 453.811H1005.84C1006.06 453.439 1006.33 453.127 1006.65 452.873C1006.98 452.619 1007.34 452.427 1007.75 452.297C1008.15 452.167 1008.58 452.102 1009.04 452.102C1009.85 452.102 1010.53 452.255 1011.08 452.561C1011.63 452.86 1012.03 453.319 1012.28 453.938H1012.37C1012.72 453.319 1013.2 452.86 1013.81 452.561C1014.42 452.255 1015.09 452.102 1015.82 452.102ZM1022.47 461.984C1022.47 461.529 1022.58 461.206 1022.8 461.018C1023.03 460.822 1023.3 460.725 1023.62 460.725C1023.95 460.725 1024.23 460.822 1024.46 461.018C1024.68 461.206 1024.8 461.529 1024.8 461.984C1024.8 462.434 1024.68 462.762 1024.46 462.971C1024.23 463.173 1023.95 463.273 1023.62 463.273C1023.3 463.273 1023.03 463.173 1022.8 462.971C1022.58 462.762 1022.47 462.434 1022.47 461.984ZM1030.52 457.521L1026.82 452.297H1028.67L1031.5 456.418L1034.31 452.297H1036.14L1032.44 457.521L1036.35 463H1034.49L1031.5 458.635L1028.48 463H1026.64L1030.52 457.521ZM1036.75 452.297H1038.49L1040.85 458.508C1040.99 458.872 1041.12 459.224 1041.23 459.562C1041.35 459.895 1041.45 460.214 1041.54 460.52C1041.64 460.826 1041.71 461.122 1041.76 461.408H1041.83C1041.92 461.083 1042.05 460.656 1042.22 460.129C1042.39 459.595 1042.57 459.051 1042.77 458.498L1045 452.297H1046.75L1042.09 464.572C1041.84 465.23 1041.55 465.803 1041.22 466.291C1040.9 466.779 1040.5 467.154 1040.03 467.414C1039.56 467.681 1039 467.814 1038.33 467.814C1038.03 467.814 1037.76 467.795 1037.52 467.756C1037.29 467.723 1037.09 467.684 1036.92 467.639V466.34C1037.06 466.372 1037.23 466.402 1037.43 466.428C1037.64 466.454 1037.86 466.467 1038.08 466.467C1038.48 466.467 1038.83 466.389 1039.12 466.232C1039.42 466.083 1039.68 465.861 1039.89 465.568C1040.11 465.275 1040.29 464.927 1040.45 464.523L1041.04 463.02L1036.75 452.297ZM1055.33 463H1047.53V461.926L1053.4 453.566H1047.9V452.297H1055.21V453.498L1049.42 461.74H1055.33V463Z" fill="#FEF0E4"/>
</g>
<rect x="71" y="107" width="1057" height="413" stroke="#312F2C" stroke-width="2"/>
<defs>
<clipPath id="clip0_7_6">
<rect x="70" y="106" width="1059" height="415" fill="white"/>
</clipPath>
</defs>
</svg>
